G04 EAGLE Gerber RS-274X export*
G75*
%MOMM*%
%FSLAX34Y34*%
%LPD*%
%INBottom Copper*%
%IPPOS*%
%AMOC8*
5,1,8,0,0,1.08239X$1,22.5*%
G01*
%ADD10C,1.879600*%
%ADD11C,1.524000*%
%ADD12C,2.000000*%
%ADD13C,1.524000*%
%ADD14C,0.304800*%


D10*
X-389890Y132080D03*
X-389890Y106680D03*
X-389890Y81280D03*
X-389890Y55880D03*
X-389890Y30480D03*
X-389890Y5080D03*
X-389890Y-20320D03*
X-389890Y-45720D03*
X-389890Y-71120D03*
X-389890Y-96520D03*
X-389890Y-121920D03*
X-389890Y-147320D03*
X-237490Y-147320D03*
X-237490Y-121920D03*
X-237490Y-96520D03*
X-237490Y-71120D03*
X-237490Y-45720D03*
X-237490Y-20320D03*
X-237490Y5080D03*
X-237490Y30480D03*
X-237490Y55880D03*
X-237490Y81280D03*
X-237490Y106680D03*
X-237490Y132080D03*
D11*
X88900Y-86360D03*
X63500Y-86360D03*
X38100Y-86360D03*
X12700Y-86360D03*
X-12700Y-86360D03*
X-38100Y-86360D03*
X-63500Y-86360D03*
X-88900Y-86360D03*
X-88900Y-213360D03*
X-63500Y-213360D03*
X-38100Y-213360D03*
X-12700Y-213360D03*
X12700Y-213360D03*
X38100Y-213360D03*
X63500Y-213360D03*
X88900Y-213360D03*
D12*
X10000Y184900D02*
X-10000Y184900D01*
X-10000Y245900D02*
X10000Y245900D01*
X-48000Y225900D02*
X-48000Y205900D01*
D13*
X212790Y102276D02*
X224816Y111638D01*
X209213Y131681D02*
X197187Y122319D01*
X181584Y142362D02*
X193610Y151724D01*
X38100Y-234950D02*
X38100Y-250190D01*
X12700Y-250190D02*
X12700Y-234950D01*
X-12700Y-234950D02*
X-12700Y-250190D01*
X-38100Y-250190D02*
X-38100Y-234950D01*
X-127918Y187991D02*
X-137571Y199785D01*
X-157226Y183697D02*
X-147574Y171903D01*
X-167229Y155815D02*
X-176882Y167609D01*
D14*
X-88900Y-86360D02*
X-88900Y-213360D01*
X-200636Y168678D02*
X-156131Y205105D01*
X-200636Y143534D02*
X-237490Y106680D01*
X-200636Y143534D02*
X-200636Y168678D01*
X-142612Y203755D02*
X-132744Y193888D01*
X-142612Y203755D02*
X-156131Y205105D01*
X-237490Y106680D02*
X-339090Y106680D01*
X-389890Y55880D01*
X-88900Y-213360D02*
X-78587Y-213360D01*
X53187Y-213360D02*
X63500Y-213360D01*
X-67919Y-202692D02*
X-78587Y-213360D01*
X42519Y-202692D02*
X53187Y-213360D01*
X42519Y-202692D02*
X-67919Y-202692D01*
X-88900Y184900D02*
X0Y184900D01*
X-88900Y184900D02*
X-123757Y184900D01*
X-132744Y193888D01*
X-88900Y184900D02*
X-88900Y-86360D01*
X-143475Y168875D02*
X-152400Y177800D01*
X-143475Y168875D02*
X-143475Y87737D01*
X-326390Y43434D02*
X-370840Y-1016D01*
X-370840Y-26670D01*
X-389890Y-45720D01*
X-326390Y43434D02*
X-187778Y43434D01*
X-143475Y87737D01*
X101600Y144325D02*
X101600Y-202692D01*
X90932Y-213360D01*
X88900Y-213360D01*
X101600Y144325D02*
X101545Y144355D01*
X0Y245900D01*
M02*
