G04 EAGLE Gerber RS-274X export*
G75*
%MOMM*%
%FSLAX34Y34*%
%LPD*%
%IN*%
%IPPOS*%
%AMOC8*
5,1,8,0,0,1.08239X$1,22.5*%
G01*
%ADD10C,0.254000*%


D10*
X-411001Y-169374D02*
X-216827Y-169374D01*
X-201240Y-187627D01*
X-184122Y-204452D01*
X-165602Y-219721D01*
X-145822Y-233318D01*
X-124932Y-245140D01*
X-103091Y-255095D01*
X-80466Y-263110D01*
X-57228Y-269121D01*
X-33555Y-273085D01*
X-9626Y-274970D01*
X14376Y-274763D01*
X38268Y-272465D01*
X61870Y-268093D01*
X85000Y-261680D01*
X107483Y-253276D01*
X129149Y-242945D01*
X149831Y-230764D01*
X169374Y-216827D01*
X187627Y-201240D01*
X204452Y-184122D01*
X219721Y-165602D01*
X233318Y-145822D01*
X245140Y-124932D01*
X255096Y-103091D01*
X263110Y-80466D01*
X269122Y-57228D01*
X273085Y-33555D01*
X274971Y-9626D01*
X274763Y14376D01*
X272465Y38268D01*
X268093Y61869D01*
X261680Y85000D01*
X253276Y107483D01*
X242945Y129149D01*
X230764Y149831D01*
X216827Y169374D01*
X201240Y187627D01*
X184122Y204452D01*
X165602Y219721D01*
X145822Y233318D01*
X124932Y245140D01*
X103091Y255095D01*
X80466Y263110D01*
X57228Y269121D01*
X33555Y273085D01*
X9626Y274970D01*
X-14376Y274763D01*
X-38268Y272465D01*
X-61869Y268093D01*
X-85000Y261680D01*
X-107483Y253276D01*
X-129149Y242945D01*
X-149831Y230764D01*
X-169373Y216827D01*
X-187627Y201240D01*
X-204452Y184122D01*
X-216827Y169374D01*
X-411001Y169374D01*
X-411001Y-169374D01*
X-14000Y240900D02*
X14000Y240900D01*
X14000Y250900D01*
X-14000Y250900D01*
X-14000Y240900D01*
X-16500Y179900D02*
X16500Y179900D01*
X16500Y189900D01*
X-16500Y189900D01*
X-16500Y179900D01*
X-53000Y201900D02*
X-43000Y201900D01*
X-43000Y229900D01*
X-53000Y229900D01*
X-53000Y201900D01*
X65000Y-1110D02*
X65000Y1110D01*
X64924Y3328D01*
X64773Y5543D01*
X64546Y7751D01*
X64243Y9950D01*
X63866Y12138D01*
X63415Y14311D01*
X62889Y16468D01*
X62290Y18606D01*
X61619Y20721D01*
X60875Y22813D01*
X60061Y24878D01*
X59177Y26914D01*
X58223Y28919D01*
X57202Y30890D01*
X56114Y32825D01*
X54961Y34721D01*
X53743Y36577D01*
X52463Y38391D01*
X51122Y40160D01*
X49721Y41882D01*
X48262Y43555D01*
X46747Y45177D01*
X45177Y46747D01*
X43555Y48262D01*
X41882Y49721D01*
X40160Y51122D01*
X38391Y52463D01*
X36577Y53743D01*
X34721Y54961D01*
X32825Y56114D01*
X30890Y57202D01*
X28919Y58223D01*
X26914Y59177D01*
X24878Y60061D01*
X22813Y60875D01*
X20721Y61619D01*
X18606Y62290D01*
X16468Y62889D01*
X14311Y63415D01*
X12138Y63866D01*
X9950Y64243D01*
X7751Y64546D01*
X5543Y64773D01*
X3328Y64924D01*
X1110Y65000D01*
X-1110Y65000D01*
X-3328Y64924D01*
X-5543Y64773D01*
X-7751Y64546D01*
X-9950Y64243D01*
X-12138Y63866D01*
X-14311Y63415D01*
X-16468Y62889D01*
X-18606Y62290D01*
X-20721Y61619D01*
X-22813Y60875D01*
X-24878Y60061D01*
X-26914Y59177D01*
X-28919Y58223D01*
X-30890Y57202D01*
X-32825Y56114D01*
X-34721Y54961D01*
X-36577Y53743D01*
X-38391Y52463D01*
X-40160Y51122D01*
X-41882Y49721D01*
X-43555Y48262D01*
X-45177Y46747D01*
X-46747Y45177D01*
X-48262Y43555D01*
X-49721Y41882D01*
X-51122Y40160D01*
X-52463Y38391D01*
X-53743Y36577D01*
X-54961Y34721D01*
X-56114Y32825D01*
X-57202Y30890D01*
X-58223Y28919D01*
X-59177Y26914D01*
X-60061Y24878D01*
X-60875Y22813D01*
X-61619Y20721D01*
X-62290Y18606D01*
X-62889Y16468D01*
X-63415Y14311D01*
X-63866Y12138D01*
X-64243Y9950D01*
X-64546Y7751D01*
X-64773Y5543D01*
X-64924Y3328D01*
X-65000Y1110D01*
X-65000Y-1110D01*
X-64924Y-3328D01*
X-64773Y-5543D01*
X-64546Y-7751D01*
X-64243Y-9950D01*
X-63866Y-12138D01*
X-63415Y-14311D01*
X-62889Y-16468D01*
X-62290Y-18606D01*
X-61619Y-20721D01*
X-60875Y-22813D01*
X-60061Y-24878D01*
X-59177Y-26914D01*
X-58223Y-28919D01*
X-57202Y-30890D01*
X-56114Y-32825D01*
X-54961Y-34721D01*
X-53743Y-36577D01*
X-52463Y-38391D01*
X-51122Y-40160D01*
X-49721Y-41882D01*
X-48262Y-43555D01*
X-46747Y-45177D01*
X-45177Y-46747D01*
X-43555Y-48262D01*
X-41882Y-49721D01*
X-40160Y-51122D01*
X-38391Y-52463D01*
X-36577Y-53743D01*
X-34721Y-54961D01*
X-32825Y-56114D01*
X-30890Y-57202D01*
X-28919Y-58223D01*
X-26914Y-59177D01*
X-24878Y-60061D01*
X-22813Y-60875D01*
X-20721Y-61619D01*
X-18606Y-62290D01*
X-16468Y-62889D01*
X-14311Y-63415D01*
X-12138Y-63866D01*
X-9950Y-64243D01*
X-7751Y-64546D01*
X-5543Y-64773D01*
X-3328Y-64924D01*
X-1110Y-65000D01*
X1110Y-65000D01*
X3328Y-64924D01*
X5543Y-64773D01*
X7751Y-64546D01*
X9950Y-64243D01*
X12138Y-63866D01*
X14311Y-63415D01*
X16468Y-62889D01*
X18606Y-62290D01*
X20721Y-61619D01*
X22813Y-60875D01*
X24878Y-60061D01*
X26914Y-59177D01*
X28919Y-58223D01*
X30890Y-57202D01*
X32825Y-56114D01*
X34721Y-54961D01*
X36577Y-53743D01*
X38391Y-52463D01*
X40160Y-51122D01*
X41882Y-49721D01*
X43555Y-48262D01*
X45177Y-46747D01*
X46747Y-45177D01*
X48262Y-43555D01*
X49721Y-41882D01*
X51122Y-40160D01*
X52463Y-38391D01*
X53743Y-36577D01*
X54961Y-34721D01*
X56114Y-32825D01*
X57202Y-30890D01*
X58223Y-28919D01*
X59177Y-26914D01*
X60061Y-24878D01*
X60875Y-22813D01*
X61619Y-20721D01*
X62290Y-18606D01*
X62889Y-16468D01*
X63415Y-14311D01*
X63866Y-12138D01*
X64243Y-9950D01*
X64546Y-7751D01*
X64773Y-5543D01*
X64924Y-3328D01*
X65000Y-1110D01*
M02*
