G04 EAGLE Gerber RS-274X export*
G75*
%MOMM*%
%FSLAX34Y34*%
%LPD*%
%INSilkscreen Top*%
%IPPOS*%
%AMOC8*
5,1,8,0,0,1.08239X$1,22.5*%
G01*
%ADD10C,0.127000*%
%ADD11C,0.101600*%
%ADD12C,0.152400*%
%ADD13C,0.203200*%


D10*
X-317609Y188736D02*
X-316269Y188736D01*
X-316269Y188737D02*
X-316198Y188735D01*
X-316126Y188729D01*
X-316056Y188720D01*
X-315986Y188707D01*
X-315916Y188690D01*
X-315848Y188669D01*
X-315781Y188645D01*
X-315715Y188617D01*
X-315651Y188586D01*
X-315588Y188551D01*
X-315528Y188513D01*
X-315469Y188472D01*
X-315413Y188428D01*
X-315359Y188381D01*
X-315308Y188332D01*
X-315260Y188279D01*
X-315214Y188224D01*
X-315172Y188167D01*
X-315132Y188107D01*
X-315096Y188046D01*
X-315063Y187982D01*
X-315034Y187917D01*
X-315008Y187851D01*
X-314985Y187783D01*
X-314966Y187714D01*
X-314951Y187644D01*
X-314940Y187574D01*
X-314932Y187503D01*
X-314928Y187432D01*
X-314928Y187360D01*
X-314932Y187289D01*
X-314940Y187218D01*
X-314951Y187148D01*
X-314966Y187078D01*
X-314985Y187009D01*
X-315008Y186941D01*
X-315034Y186875D01*
X-315063Y186810D01*
X-315096Y186746D01*
X-315132Y186685D01*
X-315172Y186625D01*
X-315214Y186568D01*
X-315260Y186513D01*
X-315308Y186460D01*
X-315359Y186411D01*
X-315413Y186364D01*
X-315469Y186320D01*
X-315528Y186279D01*
X-315588Y186241D01*
X-315651Y186206D01*
X-315715Y186175D01*
X-315781Y186147D01*
X-315848Y186123D01*
X-315916Y186102D01*
X-315986Y186085D01*
X-316056Y186072D01*
X-316126Y186063D01*
X-316198Y186057D01*
X-316269Y186055D01*
X-317609Y186055D01*
X-317609Y190881D01*
X-316269Y190881D01*
X-316204Y190879D01*
X-316140Y190873D01*
X-316076Y190863D01*
X-316012Y190850D01*
X-315950Y190832D01*
X-315889Y190811D01*
X-315829Y190787D01*
X-315771Y190758D01*
X-315714Y190726D01*
X-315660Y190691D01*
X-315608Y190653D01*
X-315558Y190611D01*
X-315511Y190567D01*
X-315467Y190520D01*
X-315425Y190470D01*
X-315387Y190418D01*
X-315352Y190364D01*
X-315320Y190307D01*
X-315291Y190249D01*
X-315267Y190189D01*
X-315246Y190128D01*
X-315228Y190066D01*
X-315215Y190002D01*
X-315205Y189938D01*
X-315199Y189874D01*
X-315197Y189809D01*
X-315199Y189744D01*
X-315205Y189680D01*
X-315215Y189616D01*
X-315228Y189552D01*
X-315246Y189490D01*
X-315267Y189429D01*
X-315291Y189369D01*
X-315320Y189311D01*
X-315352Y189254D01*
X-315387Y189200D01*
X-315425Y189148D01*
X-315467Y189098D01*
X-315511Y189051D01*
X-315558Y189007D01*
X-315608Y188965D01*
X-315660Y188927D01*
X-315714Y188892D01*
X-315771Y188860D01*
X-315829Y188831D01*
X-315889Y188807D01*
X-315950Y188786D01*
X-316012Y188768D01*
X-316076Y188755D01*
X-316140Y188745D01*
X-316204Y188739D01*
X-316269Y188737D01*
X-312452Y189809D02*
X-311112Y190881D01*
X-311112Y186055D01*
X-312452Y186055D02*
X-309771Y186055D01*
X101500Y-73860D02*
X101500Y-225860D01*
X-101500Y-225860D01*
X-101500Y-73860D01*
X101500Y-73860D01*
D11*
X81026Y-99060D02*
X81026Y-116451D01*
X94742Y-115943D02*
X94742Y-110750D01*
X94742Y-115943D02*
X83058Y-115943D01*
X83058Y-110750D01*
X88251Y-112048D02*
X88251Y-115943D01*
X83058Y-106059D02*
X94742Y-106059D01*
X94742Y-99568D02*
X83058Y-106059D01*
X83058Y-99568D02*
X94742Y-99568D01*
X69342Y-129949D02*
X57658Y-129949D01*
X64149Y-126055D01*
X57658Y-122160D01*
X69342Y-122160D01*
X69342Y-113213D02*
X69340Y-113114D01*
X69334Y-113014D01*
X69325Y-112915D01*
X69312Y-112817D01*
X69295Y-112719D01*
X69274Y-112621D01*
X69249Y-112525D01*
X69221Y-112430D01*
X69189Y-112336D01*
X69154Y-112243D01*
X69115Y-112151D01*
X69072Y-112061D01*
X69027Y-111973D01*
X68977Y-111886D01*
X68925Y-111802D01*
X68869Y-111719D01*
X68811Y-111639D01*
X68749Y-111561D01*
X68684Y-111486D01*
X68616Y-111413D01*
X68546Y-111343D01*
X68473Y-111275D01*
X68398Y-111210D01*
X68320Y-111148D01*
X68240Y-111090D01*
X68157Y-111034D01*
X68073Y-110982D01*
X67986Y-110932D01*
X67898Y-110887D01*
X67808Y-110844D01*
X67716Y-110805D01*
X67623Y-110770D01*
X67529Y-110738D01*
X67434Y-110710D01*
X67338Y-110685D01*
X67240Y-110664D01*
X67142Y-110647D01*
X67044Y-110634D01*
X66945Y-110625D01*
X66845Y-110619D01*
X66746Y-110617D01*
X69342Y-113213D02*
X69340Y-113357D01*
X69334Y-113502D01*
X69325Y-113646D01*
X69312Y-113789D01*
X69295Y-113933D01*
X69274Y-114076D01*
X69249Y-114218D01*
X69221Y-114359D01*
X69189Y-114500D01*
X69153Y-114640D01*
X69114Y-114779D01*
X69071Y-114917D01*
X69024Y-115053D01*
X68974Y-115189D01*
X68920Y-115323D01*
X68863Y-115455D01*
X68802Y-115586D01*
X68738Y-115715D01*
X68670Y-115843D01*
X68599Y-115969D01*
X68525Y-116093D01*
X68448Y-116214D01*
X68367Y-116334D01*
X68284Y-116452D01*
X68197Y-116567D01*
X68107Y-116680D01*
X68014Y-116791D01*
X67919Y-116899D01*
X67820Y-117005D01*
X67719Y-117108D01*
X60254Y-116784D02*
X60155Y-116782D01*
X60055Y-116776D01*
X59956Y-116767D01*
X59858Y-116754D01*
X59760Y-116736D01*
X59662Y-116716D01*
X59566Y-116691D01*
X59470Y-116663D01*
X59376Y-116631D01*
X59283Y-116596D01*
X59192Y-116557D01*
X59102Y-116514D01*
X59013Y-116469D01*
X58927Y-116419D01*
X58842Y-116367D01*
X58760Y-116311D01*
X58680Y-116252D01*
X58602Y-116191D01*
X58526Y-116126D01*
X58453Y-116058D01*
X58383Y-115988D01*
X58315Y-115915D01*
X58250Y-115839D01*
X58189Y-115761D01*
X58130Y-115681D01*
X58074Y-115599D01*
X58022Y-115514D01*
X57973Y-115428D01*
X57927Y-115339D01*
X57884Y-115249D01*
X57845Y-115158D01*
X57810Y-115065D01*
X57778Y-114971D01*
X57750Y-114875D01*
X57725Y-114779D01*
X57705Y-114681D01*
X57687Y-114583D01*
X57674Y-114485D01*
X57665Y-114386D01*
X57659Y-114287D01*
X57657Y-114187D01*
X57658Y-114187D02*
X57660Y-114051D01*
X57666Y-113915D01*
X57675Y-113779D01*
X57688Y-113643D01*
X57706Y-113508D01*
X57726Y-113374D01*
X57751Y-113240D01*
X57779Y-113106D01*
X57812Y-112974D01*
X57847Y-112843D01*
X57887Y-112712D01*
X57930Y-112583D01*
X57976Y-112455D01*
X58027Y-112329D01*
X58080Y-112203D01*
X58138Y-112080D01*
X58198Y-111958D01*
X58262Y-111838D01*
X58330Y-111719D01*
X58400Y-111603D01*
X58474Y-111488D01*
X58551Y-111376D01*
X58632Y-111266D01*
X62526Y-115486D02*
X62473Y-115572D01*
X62416Y-115656D01*
X62357Y-115738D01*
X62294Y-115818D01*
X62228Y-115895D01*
X62160Y-115970D01*
X62088Y-116042D01*
X62014Y-116111D01*
X61937Y-116177D01*
X61858Y-116240D01*
X61776Y-116300D01*
X61692Y-116357D01*
X61606Y-116411D01*
X61518Y-116461D01*
X61428Y-116508D01*
X61337Y-116552D01*
X61243Y-116591D01*
X61149Y-116628D01*
X61053Y-116660D01*
X60955Y-116689D01*
X60857Y-116714D01*
X60758Y-116735D01*
X60658Y-116753D01*
X60558Y-116766D01*
X60457Y-116776D01*
X60355Y-116782D01*
X60254Y-116784D01*
X64474Y-111915D02*
X64527Y-111829D01*
X64584Y-111745D01*
X64643Y-111663D01*
X64706Y-111583D01*
X64772Y-111506D01*
X64840Y-111431D01*
X64912Y-111359D01*
X64986Y-111290D01*
X65063Y-111224D01*
X65142Y-111161D01*
X65224Y-111101D01*
X65308Y-111044D01*
X65394Y-110990D01*
X65482Y-110940D01*
X65572Y-110893D01*
X65663Y-110849D01*
X65757Y-110810D01*
X65851Y-110773D01*
X65947Y-110741D01*
X66045Y-110712D01*
X66143Y-110687D01*
X66242Y-110666D01*
X66342Y-110648D01*
X66442Y-110635D01*
X66543Y-110625D01*
X66645Y-110619D01*
X66746Y-110617D01*
X64474Y-111915D02*
X62526Y-115485D01*
X60254Y-106059D02*
X57658Y-102814D01*
X69342Y-102814D01*
X69342Y-106059D02*
X69342Y-99568D01*
X43942Y-129949D02*
X32258Y-129949D01*
X38749Y-126055D01*
X32258Y-122160D01*
X43942Y-122160D01*
X43942Y-113213D02*
X43940Y-113114D01*
X43934Y-113014D01*
X43925Y-112915D01*
X43912Y-112817D01*
X43895Y-112719D01*
X43874Y-112621D01*
X43849Y-112525D01*
X43821Y-112430D01*
X43789Y-112336D01*
X43754Y-112243D01*
X43715Y-112151D01*
X43672Y-112061D01*
X43627Y-111973D01*
X43577Y-111886D01*
X43525Y-111802D01*
X43469Y-111719D01*
X43411Y-111639D01*
X43349Y-111561D01*
X43284Y-111486D01*
X43216Y-111413D01*
X43146Y-111343D01*
X43073Y-111275D01*
X42998Y-111210D01*
X42920Y-111148D01*
X42840Y-111090D01*
X42757Y-111034D01*
X42673Y-110982D01*
X42586Y-110932D01*
X42498Y-110887D01*
X42408Y-110844D01*
X42316Y-110805D01*
X42223Y-110770D01*
X42129Y-110738D01*
X42034Y-110710D01*
X41938Y-110685D01*
X41840Y-110664D01*
X41742Y-110647D01*
X41644Y-110634D01*
X41545Y-110625D01*
X41445Y-110619D01*
X41346Y-110617D01*
X43942Y-113213D02*
X43940Y-113357D01*
X43934Y-113502D01*
X43925Y-113646D01*
X43912Y-113789D01*
X43895Y-113933D01*
X43874Y-114076D01*
X43849Y-114218D01*
X43821Y-114359D01*
X43789Y-114500D01*
X43753Y-114640D01*
X43714Y-114779D01*
X43671Y-114917D01*
X43624Y-115053D01*
X43574Y-115189D01*
X43520Y-115323D01*
X43463Y-115455D01*
X43402Y-115586D01*
X43338Y-115715D01*
X43270Y-115843D01*
X43199Y-115969D01*
X43125Y-116093D01*
X43048Y-116214D01*
X42967Y-116334D01*
X42884Y-116452D01*
X42797Y-116567D01*
X42707Y-116680D01*
X42614Y-116791D01*
X42519Y-116899D01*
X42420Y-117005D01*
X42319Y-117108D01*
X34854Y-116784D02*
X34755Y-116782D01*
X34655Y-116776D01*
X34556Y-116767D01*
X34458Y-116754D01*
X34360Y-116736D01*
X34262Y-116716D01*
X34166Y-116691D01*
X34070Y-116663D01*
X33976Y-116631D01*
X33883Y-116596D01*
X33792Y-116557D01*
X33702Y-116514D01*
X33613Y-116469D01*
X33527Y-116419D01*
X33442Y-116367D01*
X33360Y-116311D01*
X33280Y-116252D01*
X33202Y-116191D01*
X33126Y-116126D01*
X33053Y-116058D01*
X32983Y-115988D01*
X32915Y-115915D01*
X32850Y-115839D01*
X32789Y-115761D01*
X32730Y-115681D01*
X32674Y-115599D01*
X32622Y-115514D01*
X32573Y-115428D01*
X32527Y-115339D01*
X32484Y-115249D01*
X32445Y-115158D01*
X32410Y-115065D01*
X32378Y-114971D01*
X32350Y-114875D01*
X32325Y-114779D01*
X32305Y-114681D01*
X32287Y-114583D01*
X32274Y-114485D01*
X32265Y-114386D01*
X32259Y-114287D01*
X32257Y-114187D01*
X32258Y-114187D02*
X32260Y-114051D01*
X32266Y-113915D01*
X32275Y-113779D01*
X32288Y-113643D01*
X32306Y-113508D01*
X32326Y-113374D01*
X32351Y-113240D01*
X32379Y-113106D01*
X32412Y-112974D01*
X32447Y-112843D01*
X32487Y-112712D01*
X32530Y-112583D01*
X32576Y-112455D01*
X32627Y-112329D01*
X32680Y-112203D01*
X32738Y-112080D01*
X32798Y-111958D01*
X32862Y-111838D01*
X32930Y-111719D01*
X33000Y-111603D01*
X33074Y-111488D01*
X33151Y-111376D01*
X33232Y-111266D01*
X37126Y-115486D02*
X37073Y-115572D01*
X37016Y-115656D01*
X36957Y-115738D01*
X36894Y-115818D01*
X36828Y-115895D01*
X36760Y-115970D01*
X36688Y-116042D01*
X36614Y-116111D01*
X36537Y-116177D01*
X36458Y-116240D01*
X36376Y-116300D01*
X36292Y-116357D01*
X36206Y-116411D01*
X36118Y-116461D01*
X36028Y-116508D01*
X35937Y-116552D01*
X35843Y-116591D01*
X35749Y-116628D01*
X35653Y-116660D01*
X35555Y-116689D01*
X35457Y-116714D01*
X35358Y-116735D01*
X35258Y-116753D01*
X35158Y-116766D01*
X35057Y-116776D01*
X34955Y-116782D01*
X34854Y-116784D01*
X39074Y-111915D02*
X39127Y-111829D01*
X39184Y-111745D01*
X39243Y-111663D01*
X39306Y-111583D01*
X39372Y-111506D01*
X39440Y-111431D01*
X39512Y-111359D01*
X39586Y-111290D01*
X39663Y-111224D01*
X39742Y-111161D01*
X39824Y-111101D01*
X39908Y-111044D01*
X39994Y-110990D01*
X40082Y-110940D01*
X40172Y-110893D01*
X40263Y-110849D01*
X40357Y-110810D01*
X40451Y-110773D01*
X40547Y-110741D01*
X40645Y-110712D01*
X40743Y-110687D01*
X40842Y-110666D01*
X40942Y-110648D01*
X41042Y-110635D01*
X41143Y-110625D01*
X41245Y-110619D01*
X41346Y-110617D01*
X39074Y-111915D02*
X37126Y-115485D01*
X32258Y-102489D02*
X32260Y-102382D01*
X32266Y-102276D01*
X32276Y-102170D01*
X32289Y-102064D01*
X32307Y-101958D01*
X32328Y-101854D01*
X32353Y-101750D01*
X32382Y-101647D01*
X32414Y-101546D01*
X32451Y-101446D01*
X32491Y-101347D01*
X32534Y-101249D01*
X32581Y-101153D01*
X32632Y-101059D01*
X32686Y-100967D01*
X32743Y-100877D01*
X32803Y-100789D01*
X32867Y-100704D01*
X32934Y-100621D01*
X33004Y-100540D01*
X33076Y-100462D01*
X33152Y-100386D01*
X33230Y-100314D01*
X33311Y-100244D01*
X33394Y-100177D01*
X33479Y-100113D01*
X33567Y-100053D01*
X33657Y-99996D01*
X33749Y-99942D01*
X33843Y-99891D01*
X33939Y-99844D01*
X34037Y-99801D01*
X34136Y-99761D01*
X34236Y-99724D01*
X34337Y-99692D01*
X34440Y-99663D01*
X34544Y-99638D01*
X34648Y-99617D01*
X34754Y-99599D01*
X34860Y-99586D01*
X34966Y-99576D01*
X35072Y-99570D01*
X35179Y-99568D01*
X32258Y-102489D02*
X32260Y-102610D01*
X32266Y-102731D01*
X32276Y-102851D01*
X32289Y-102972D01*
X32307Y-103091D01*
X32328Y-103211D01*
X32353Y-103329D01*
X32382Y-103446D01*
X32415Y-103563D01*
X32451Y-103678D01*
X32492Y-103792D01*
X32535Y-103905D01*
X32583Y-104017D01*
X32634Y-104126D01*
X32689Y-104234D01*
X32747Y-104341D01*
X32808Y-104445D01*
X32873Y-104547D01*
X32941Y-104647D01*
X33012Y-104745D01*
X33086Y-104841D01*
X33163Y-104934D01*
X33244Y-105024D01*
X33327Y-105112D01*
X33413Y-105197D01*
X33502Y-105280D01*
X33593Y-105359D01*
X33687Y-105436D01*
X33783Y-105509D01*
X33881Y-105579D01*
X33982Y-105646D01*
X34085Y-105710D01*
X34190Y-105771D01*
X34297Y-105828D01*
X34405Y-105881D01*
X34515Y-105931D01*
X34627Y-105978D01*
X34740Y-106020D01*
X34855Y-106059D01*
X37451Y-100542D02*
X37373Y-100463D01*
X37293Y-100387D01*
X37210Y-100314D01*
X37124Y-100244D01*
X37037Y-100177D01*
X36946Y-100113D01*
X36854Y-100053D01*
X36760Y-99995D01*
X36663Y-99941D01*
X36565Y-99891D01*
X36465Y-99844D01*
X36364Y-99800D01*
X36261Y-99760D01*
X36156Y-99724D01*
X36051Y-99692D01*
X35944Y-99663D01*
X35837Y-99638D01*
X35728Y-99616D01*
X35619Y-99599D01*
X35510Y-99585D01*
X35400Y-99576D01*
X35289Y-99570D01*
X35179Y-99568D01*
X37451Y-100542D02*
X43942Y-106059D01*
X43942Y-99568D01*
X18542Y-129949D02*
X6858Y-129949D01*
X13349Y-126055D01*
X6858Y-122160D01*
X18542Y-122160D01*
X18542Y-113213D02*
X18540Y-113114D01*
X18534Y-113014D01*
X18525Y-112915D01*
X18512Y-112817D01*
X18495Y-112719D01*
X18474Y-112621D01*
X18449Y-112525D01*
X18421Y-112430D01*
X18389Y-112336D01*
X18354Y-112243D01*
X18315Y-112151D01*
X18272Y-112061D01*
X18227Y-111973D01*
X18177Y-111886D01*
X18125Y-111802D01*
X18069Y-111719D01*
X18011Y-111639D01*
X17949Y-111561D01*
X17884Y-111486D01*
X17816Y-111413D01*
X17746Y-111343D01*
X17673Y-111275D01*
X17598Y-111210D01*
X17520Y-111148D01*
X17440Y-111090D01*
X17357Y-111034D01*
X17273Y-110982D01*
X17186Y-110932D01*
X17098Y-110887D01*
X17008Y-110844D01*
X16916Y-110805D01*
X16823Y-110770D01*
X16729Y-110738D01*
X16634Y-110710D01*
X16538Y-110685D01*
X16440Y-110664D01*
X16342Y-110647D01*
X16244Y-110634D01*
X16145Y-110625D01*
X16045Y-110619D01*
X15946Y-110617D01*
X18542Y-113213D02*
X18540Y-113357D01*
X18534Y-113502D01*
X18525Y-113646D01*
X18512Y-113789D01*
X18495Y-113933D01*
X18474Y-114076D01*
X18449Y-114218D01*
X18421Y-114359D01*
X18389Y-114500D01*
X18353Y-114640D01*
X18314Y-114779D01*
X18271Y-114917D01*
X18224Y-115053D01*
X18174Y-115189D01*
X18120Y-115323D01*
X18063Y-115455D01*
X18002Y-115586D01*
X17938Y-115715D01*
X17870Y-115843D01*
X17799Y-115969D01*
X17725Y-116093D01*
X17648Y-116214D01*
X17567Y-116334D01*
X17484Y-116452D01*
X17397Y-116567D01*
X17307Y-116680D01*
X17214Y-116791D01*
X17119Y-116899D01*
X17020Y-117005D01*
X16919Y-117108D01*
X9454Y-116784D02*
X9355Y-116782D01*
X9255Y-116776D01*
X9156Y-116767D01*
X9058Y-116754D01*
X8960Y-116736D01*
X8862Y-116716D01*
X8766Y-116691D01*
X8670Y-116663D01*
X8576Y-116631D01*
X8483Y-116596D01*
X8392Y-116557D01*
X8302Y-116514D01*
X8213Y-116469D01*
X8127Y-116419D01*
X8042Y-116367D01*
X7960Y-116311D01*
X7880Y-116252D01*
X7802Y-116191D01*
X7726Y-116126D01*
X7653Y-116058D01*
X7583Y-115988D01*
X7515Y-115915D01*
X7450Y-115839D01*
X7389Y-115761D01*
X7330Y-115681D01*
X7274Y-115599D01*
X7222Y-115514D01*
X7173Y-115428D01*
X7127Y-115339D01*
X7084Y-115249D01*
X7045Y-115158D01*
X7010Y-115065D01*
X6978Y-114971D01*
X6950Y-114875D01*
X6925Y-114779D01*
X6905Y-114681D01*
X6887Y-114583D01*
X6874Y-114485D01*
X6865Y-114386D01*
X6859Y-114287D01*
X6857Y-114187D01*
X6858Y-114187D02*
X6860Y-114051D01*
X6866Y-113915D01*
X6875Y-113779D01*
X6888Y-113643D01*
X6906Y-113508D01*
X6926Y-113374D01*
X6951Y-113240D01*
X6979Y-113106D01*
X7012Y-112974D01*
X7047Y-112843D01*
X7087Y-112712D01*
X7130Y-112583D01*
X7176Y-112455D01*
X7227Y-112329D01*
X7280Y-112203D01*
X7338Y-112080D01*
X7398Y-111958D01*
X7462Y-111838D01*
X7530Y-111719D01*
X7600Y-111603D01*
X7674Y-111488D01*
X7751Y-111376D01*
X7832Y-111266D01*
X11726Y-115486D02*
X11673Y-115572D01*
X11616Y-115656D01*
X11557Y-115738D01*
X11494Y-115818D01*
X11428Y-115895D01*
X11360Y-115970D01*
X11288Y-116042D01*
X11214Y-116111D01*
X11137Y-116177D01*
X11058Y-116240D01*
X10976Y-116300D01*
X10892Y-116357D01*
X10806Y-116411D01*
X10718Y-116461D01*
X10628Y-116508D01*
X10537Y-116552D01*
X10443Y-116591D01*
X10349Y-116628D01*
X10253Y-116660D01*
X10155Y-116689D01*
X10057Y-116714D01*
X9958Y-116735D01*
X9858Y-116753D01*
X9758Y-116766D01*
X9657Y-116776D01*
X9555Y-116782D01*
X9454Y-116784D01*
X13674Y-111915D02*
X13727Y-111829D01*
X13784Y-111745D01*
X13843Y-111663D01*
X13906Y-111583D01*
X13972Y-111506D01*
X14040Y-111431D01*
X14112Y-111359D01*
X14186Y-111290D01*
X14263Y-111224D01*
X14342Y-111161D01*
X14424Y-111101D01*
X14508Y-111044D01*
X14594Y-110990D01*
X14682Y-110940D01*
X14772Y-110893D01*
X14863Y-110849D01*
X14957Y-110810D01*
X15051Y-110773D01*
X15147Y-110741D01*
X15245Y-110712D01*
X15343Y-110687D01*
X15442Y-110666D01*
X15542Y-110648D01*
X15642Y-110635D01*
X15743Y-110625D01*
X15845Y-110619D01*
X15946Y-110617D01*
X13674Y-111915D02*
X11726Y-115485D01*
X18542Y-106059D02*
X18542Y-102814D01*
X18540Y-102701D01*
X18534Y-102588D01*
X18524Y-102475D01*
X18510Y-102362D01*
X18493Y-102250D01*
X18471Y-102139D01*
X18446Y-102029D01*
X18416Y-101919D01*
X18383Y-101811D01*
X18346Y-101704D01*
X18306Y-101598D01*
X18261Y-101494D01*
X18213Y-101391D01*
X18162Y-101290D01*
X18107Y-101191D01*
X18049Y-101094D01*
X17987Y-100999D01*
X17922Y-100906D01*
X17854Y-100816D01*
X17783Y-100728D01*
X17708Y-100642D01*
X17631Y-100559D01*
X17551Y-100479D01*
X17468Y-100402D01*
X17382Y-100327D01*
X17294Y-100256D01*
X17204Y-100188D01*
X17111Y-100123D01*
X17016Y-100061D01*
X16919Y-100003D01*
X16820Y-99948D01*
X16719Y-99897D01*
X16616Y-99849D01*
X16512Y-99804D01*
X16406Y-99764D01*
X16299Y-99727D01*
X16191Y-99694D01*
X16081Y-99664D01*
X15971Y-99639D01*
X15860Y-99617D01*
X15748Y-99600D01*
X15635Y-99586D01*
X15522Y-99576D01*
X15409Y-99570D01*
X15296Y-99568D01*
X15183Y-99570D01*
X15070Y-99576D01*
X14957Y-99586D01*
X14844Y-99600D01*
X14732Y-99617D01*
X14621Y-99639D01*
X14511Y-99664D01*
X14401Y-99694D01*
X14293Y-99727D01*
X14186Y-99764D01*
X14080Y-99804D01*
X13976Y-99849D01*
X13873Y-99897D01*
X13772Y-99948D01*
X13673Y-100003D01*
X13576Y-100061D01*
X13481Y-100123D01*
X13388Y-100188D01*
X13298Y-100256D01*
X13210Y-100327D01*
X13124Y-100402D01*
X13041Y-100479D01*
X12961Y-100559D01*
X12884Y-100642D01*
X12809Y-100728D01*
X12738Y-100816D01*
X12670Y-100906D01*
X12605Y-100999D01*
X12543Y-101094D01*
X12485Y-101191D01*
X12430Y-101290D01*
X12379Y-101391D01*
X12331Y-101494D01*
X12286Y-101598D01*
X12246Y-101704D01*
X12209Y-101811D01*
X12176Y-101919D01*
X12146Y-102029D01*
X12121Y-102139D01*
X12099Y-102250D01*
X12082Y-102362D01*
X12068Y-102475D01*
X12058Y-102588D01*
X12052Y-102701D01*
X12050Y-102814D01*
X6858Y-102164D02*
X6858Y-106059D01*
X6858Y-102164D02*
X6860Y-102063D01*
X6866Y-101963D01*
X6876Y-101863D01*
X6889Y-101763D01*
X6907Y-101664D01*
X6928Y-101565D01*
X6953Y-101468D01*
X6982Y-101371D01*
X7015Y-101276D01*
X7051Y-101182D01*
X7091Y-101090D01*
X7134Y-100999D01*
X7181Y-100910D01*
X7231Y-100823D01*
X7285Y-100737D01*
X7342Y-100654D01*
X7402Y-100574D01*
X7465Y-100495D01*
X7532Y-100419D01*
X7601Y-100346D01*
X7673Y-100276D01*
X7747Y-100208D01*
X7824Y-100143D01*
X7904Y-100082D01*
X7986Y-100023D01*
X8070Y-99968D01*
X8156Y-99916D01*
X8244Y-99867D01*
X8334Y-99822D01*
X8426Y-99780D01*
X8519Y-99742D01*
X8614Y-99708D01*
X8709Y-99677D01*
X8806Y-99650D01*
X8904Y-99627D01*
X9003Y-99607D01*
X9103Y-99592D01*
X9203Y-99580D01*
X9303Y-99572D01*
X9404Y-99568D01*
X9504Y-99568D01*
X9605Y-99572D01*
X9705Y-99580D01*
X9805Y-99592D01*
X9905Y-99607D01*
X10004Y-99627D01*
X10102Y-99650D01*
X10199Y-99677D01*
X10294Y-99708D01*
X10389Y-99742D01*
X10482Y-99780D01*
X10574Y-99822D01*
X10664Y-99867D01*
X10752Y-99916D01*
X10838Y-99968D01*
X10922Y-100023D01*
X11004Y-100082D01*
X11084Y-100143D01*
X11161Y-100208D01*
X11235Y-100276D01*
X11307Y-100346D01*
X11376Y-100419D01*
X11443Y-100495D01*
X11506Y-100574D01*
X11566Y-100654D01*
X11623Y-100737D01*
X11677Y-100823D01*
X11727Y-100910D01*
X11774Y-100999D01*
X11817Y-101090D01*
X11857Y-101182D01*
X11893Y-101276D01*
X11926Y-101371D01*
X11955Y-101468D01*
X11980Y-101565D01*
X12001Y-101664D01*
X12019Y-101763D01*
X12032Y-101863D01*
X12042Y-101963D01*
X12048Y-102063D01*
X12050Y-102164D01*
X12051Y-102164D02*
X12051Y-104761D01*
X-20574Y-99060D02*
X-20574Y-127829D01*
X-18542Y-127321D02*
X-6858Y-127321D01*
X-18542Y-127321D02*
X-18542Y-124076D01*
X-18540Y-123963D01*
X-18534Y-123850D01*
X-18524Y-123737D01*
X-18510Y-123624D01*
X-18493Y-123512D01*
X-18471Y-123401D01*
X-18446Y-123291D01*
X-18416Y-123181D01*
X-18383Y-123073D01*
X-18346Y-122966D01*
X-18306Y-122860D01*
X-18261Y-122756D01*
X-18213Y-122653D01*
X-18162Y-122552D01*
X-18107Y-122453D01*
X-18049Y-122356D01*
X-17987Y-122261D01*
X-17922Y-122168D01*
X-17854Y-122078D01*
X-17783Y-121990D01*
X-17708Y-121904D01*
X-17631Y-121821D01*
X-17551Y-121741D01*
X-17468Y-121664D01*
X-17382Y-121589D01*
X-17294Y-121518D01*
X-17204Y-121450D01*
X-17111Y-121385D01*
X-17016Y-121323D01*
X-16919Y-121265D01*
X-16820Y-121210D01*
X-16719Y-121159D01*
X-16616Y-121111D01*
X-16512Y-121066D01*
X-16406Y-121026D01*
X-16299Y-120989D01*
X-16191Y-120956D01*
X-16081Y-120926D01*
X-15971Y-120901D01*
X-15860Y-120879D01*
X-15748Y-120862D01*
X-15635Y-120848D01*
X-15522Y-120838D01*
X-15409Y-120832D01*
X-15296Y-120830D01*
X-15183Y-120832D01*
X-15070Y-120838D01*
X-14957Y-120848D01*
X-14844Y-120862D01*
X-14732Y-120879D01*
X-14621Y-120901D01*
X-14511Y-120926D01*
X-14401Y-120956D01*
X-14293Y-120989D01*
X-14186Y-121026D01*
X-14080Y-121066D01*
X-13976Y-121111D01*
X-13873Y-121159D01*
X-13772Y-121210D01*
X-13673Y-121265D01*
X-13576Y-121323D01*
X-13481Y-121385D01*
X-13388Y-121450D01*
X-13298Y-121518D01*
X-13210Y-121589D01*
X-13124Y-121664D01*
X-13041Y-121741D01*
X-12961Y-121821D01*
X-12884Y-121904D01*
X-12809Y-121990D01*
X-12738Y-122078D01*
X-12670Y-122168D01*
X-12605Y-122261D01*
X-12543Y-122356D01*
X-12485Y-122453D01*
X-12430Y-122552D01*
X-12379Y-122653D01*
X-12331Y-122756D01*
X-12286Y-122860D01*
X-12246Y-122966D01*
X-12209Y-123073D01*
X-12176Y-123181D01*
X-12146Y-123291D01*
X-12121Y-123401D01*
X-12099Y-123512D01*
X-12082Y-123624D01*
X-12068Y-123737D01*
X-12058Y-123850D01*
X-12052Y-123963D01*
X-12050Y-124076D01*
X-12051Y-124076D02*
X-12051Y-127321D01*
X-12051Y-123427D02*
X-6858Y-120830D01*
X-6858Y-112451D02*
X-6860Y-112352D01*
X-6866Y-112252D01*
X-6875Y-112153D01*
X-6888Y-112055D01*
X-6905Y-111957D01*
X-6926Y-111859D01*
X-6951Y-111763D01*
X-6979Y-111668D01*
X-7011Y-111574D01*
X-7046Y-111481D01*
X-7085Y-111389D01*
X-7128Y-111299D01*
X-7173Y-111211D01*
X-7223Y-111124D01*
X-7275Y-111040D01*
X-7331Y-110957D01*
X-7389Y-110877D01*
X-7451Y-110799D01*
X-7516Y-110724D01*
X-7584Y-110651D01*
X-7654Y-110581D01*
X-7727Y-110513D01*
X-7802Y-110448D01*
X-7880Y-110386D01*
X-7960Y-110328D01*
X-8043Y-110272D01*
X-8127Y-110220D01*
X-8214Y-110170D01*
X-8302Y-110125D01*
X-8392Y-110082D01*
X-8484Y-110043D01*
X-8577Y-110008D01*
X-8671Y-109976D01*
X-8766Y-109948D01*
X-8862Y-109923D01*
X-8960Y-109902D01*
X-9058Y-109885D01*
X-9156Y-109872D01*
X-9255Y-109863D01*
X-9355Y-109857D01*
X-9454Y-109855D01*
X-6858Y-112451D02*
X-6860Y-112595D01*
X-6866Y-112740D01*
X-6875Y-112884D01*
X-6888Y-113027D01*
X-6905Y-113171D01*
X-6926Y-113314D01*
X-6951Y-113456D01*
X-6979Y-113597D01*
X-7011Y-113738D01*
X-7047Y-113878D01*
X-7086Y-114017D01*
X-7129Y-114155D01*
X-7176Y-114291D01*
X-7226Y-114427D01*
X-7280Y-114561D01*
X-7337Y-114693D01*
X-7398Y-114824D01*
X-7462Y-114953D01*
X-7530Y-115081D01*
X-7601Y-115207D01*
X-7675Y-115331D01*
X-7752Y-115452D01*
X-7833Y-115572D01*
X-7916Y-115690D01*
X-8003Y-115805D01*
X-8093Y-115918D01*
X-8186Y-116029D01*
X-8281Y-116137D01*
X-8380Y-116243D01*
X-8481Y-116346D01*
X-15946Y-116021D02*
X-16045Y-116019D01*
X-16145Y-116013D01*
X-16244Y-116004D01*
X-16342Y-115991D01*
X-16440Y-115974D01*
X-16538Y-115953D01*
X-16634Y-115928D01*
X-16729Y-115900D01*
X-16823Y-115868D01*
X-16916Y-115833D01*
X-17008Y-115794D01*
X-17098Y-115751D01*
X-17186Y-115706D01*
X-17273Y-115656D01*
X-17357Y-115604D01*
X-17440Y-115548D01*
X-17520Y-115490D01*
X-17598Y-115428D01*
X-17673Y-115363D01*
X-17746Y-115295D01*
X-17816Y-115225D01*
X-17884Y-115152D01*
X-17949Y-115077D01*
X-18011Y-114999D01*
X-18069Y-114919D01*
X-18125Y-114836D01*
X-18177Y-114752D01*
X-18227Y-114665D01*
X-18272Y-114577D01*
X-18315Y-114487D01*
X-18354Y-114395D01*
X-18389Y-114302D01*
X-18421Y-114208D01*
X-18449Y-114113D01*
X-18474Y-114017D01*
X-18495Y-113919D01*
X-18512Y-113821D01*
X-18525Y-113723D01*
X-18534Y-113624D01*
X-18540Y-113524D01*
X-18542Y-113425D01*
X-18540Y-113289D01*
X-18534Y-113153D01*
X-18525Y-113017D01*
X-18512Y-112881D01*
X-18494Y-112746D01*
X-18474Y-112612D01*
X-18449Y-112478D01*
X-18421Y-112344D01*
X-18388Y-112212D01*
X-18353Y-112081D01*
X-18313Y-111950D01*
X-18270Y-111821D01*
X-18224Y-111693D01*
X-18173Y-111567D01*
X-18120Y-111441D01*
X-18062Y-111318D01*
X-18002Y-111196D01*
X-17938Y-111076D01*
X-17870Y-110957D01*
X-17800Y-110841D01*
X-17726Y-110727D01*
X-17649Y-110614D01*
X-17568Y-110504D01*
X-13674Y-114724D02*
X-13727Y-114810D01*
X-13784Y-114894D01*
X-13843Y-114976D01*
X-13906Y-115056D01*
X-13972Y-115133D01*
X-14040Y-115208D01*
X-14112Y-115280D01*
X-14186Y-115349D01*
X-14263Y-115415D01*
X-14342Y-115478D01*
X-14424Y-115538D01*
X-14508Y-115595D01*
X-14594Y-115649D01*
X-14682Y-115699D01*
X-14772Y-115746D01*
X-14863Y-115790D01*
X-14957Y-115829D01*
X-15051Y-115866D01*
X-15147Y-115898D01*
X-15245Y-115927D01*
X-15343Y-115952D01*
X-15442Y-115973D01*
X-15542Y-115991D01*
X-15642Y-116004D01*
X-15743Y-116014D01*
X-15845Y-116020D01*
X-15946Y-116022D01*
X-11726Y-111153D02*
X-11673Y-111067D01*
X-11616Y-110983D01*
X-11557Y-110901D01*
X-11494Y-110821D01*
X-11428Y-110744D01*
X-11360Y-110669D01*
X-11288Y-110597D01*
X-11214Y-110528D01*
X-11137Y-110462D01*
X-11058Y-110399D01*
X-10976Y-110339D01*
X-10892Y-110282D01*
X-10806Y-110228D01*
X-10718Y-110178D01*
X-10628Y-110131D01*
X-10537Y-110087D01*
X-10443Y-110048D01*
X-10349Y-110011D01*
X-10253Y-109979D01*
X-10155Y-109950D01*
X-10057Y-109925D01*
X-9958Y-109904D01*
X-9858Y-109886D01*
X-9758Y-109873D01*
X-9657Y-109863D01*
X-9555Y-109857D01*
X-9454Y-109855D01*
X-11726Y-111153D02*
X-13674Y-114723D01*
X-18542Y-102814D02*
X-6858Y-102814D01*
X-18542Y-106059D02*
X-18542Y-99568D01*
X-45974Y-99060D02*
X-45974Y-128072D01*
X-34854Y-121074D02*
X-34755Y-121076D01*
X-34655Y-121082D01*
X-34556Y-121091D01*
X-34458Y-121104D01*
X-34360Y-121121D01*
X-34262Y-121142D01*
X-34166Y-121167D01*
X-34071Y-121195D01*
X-33977Y-121227D01*
X-33884Y-121262D01*
X-33792Y-121301D01*
X-33702Y-121344D01*
X-33614Y-121389D01*
X-33527Y-121439D01*
X-33443Y-121491D01*
X-33360Y-121547D01*
X-33280Y-121605D01*
X-33202Y-121667D01*
X-33127Y-121732D01*
X-33054Y-121800D01*
X-32984Y-121870D01*
X-32916Y-121943D01*
X-32851Y-122018D01*
X-32789Y-122096D01*
X-32731Y-122176D01*
X-32675Y-122259D01*
X-32623Y-122343D01*
X-32573Y-122430D01*
X-32528Y-122518D01*
X-32485Y-122608D01*
X-32446Y-122700D01*
X-32411Y-122793D01*
X-32379Y-122887D01*
X-32351Y-122982D01*
X-32326Y-123078D01*
X-32305Y-123176D01*
X-32288Y-123274D01*
X-32275Y-123372D01*
X-32266Y-123471D01*
X-32260Y-123571D01*
X-32258Y-123670D01*
X-32260Y-123814D01*
X-32266Y-123959D01*
X-32275Y-124103D01*
X-32288Y-124246D01*
X-32305Y-124390D01*
X-32326Y-124533D01*
X-32351Y-124675D01*
X-32379Y-124816D01*
X-32411Y-124957D01*
X-32447Y-125097D01*
X-32486Y-125236D01*
X-32529Y-125374D01*
X-32576Y-125510D01*
X-32626Y-125646D01*
X-32680Y-125780D01*
X-32737Y-125912D01*
X-32798Y-126043D01*
X-32862Y-126172D01*
X-32930Y-126300D01*
X-33001Y-126426D01*
X-33075Y-126550D01*
X-33152Y-126671D01*
X-33233Y-126791D01*
X-33316Y-126909D01*
X-33403Y-127024D01*
X-33493Y-127137D01*
X-33586Y-127248D01*
X-33681Y-127356D01*
X-33780Y-127462D01*
X-33881Y-127565D01*
X-41346Y-127239D02*
X-41445Y-127237D01*
X-41545Y-127231D01*
X-41644Y-127222D01*
X-41742Y-127209D01*
X-41840Y-127192D01*
X-41938Y-127171D01*
X-42034Y-127146D01*
X-42129Y-127118D01*
X-42223Y-127086D01*
X-42316Y-127051D01*
X-42408Y-127012D01*
X-42498Y-126969D01*
X-42586Y-126924D01*
X-42673Y-126874D01*
X-42757Y-126822D01*
X-42840Y-126766D01*
X-42920Y-126708D01*
X-42998Y-126646D01*
X-43073Y-126581D01*
X-43146Y-126513D01*
X-43216Y-126443D01*
X-43284Y-126370D01*
X-43349Y-126295D01*
X-43411Y-126217D01*
X-43469Y-126137D01*
X-43525Y-126054D01*
X-43577Y-125970D01*
X-43627Y-125883D01*
X-43672Y-125795D01*
X-43715Y-125705D01*
X-43754Y-125613D01*
X-43789Y-125520D01*
X-43821Y-125426D01*
X-43849Y-125331D01*
X-43874Y-125235D01*
X-43895Y-125137D01*
X-43912Y-125039D01*
X-43925Y-124941D01*
X-43934Y-124842D01*
X-43940Y-124742D01*
X-43942Y-124643D01*
X-43940Y-124507D01*
X-43934Y-124371D01*
X-43925Y-124235D01*
X-43912Y-124099D01*
X-43894Y-123964D01*
X-43874Y-123830D01*
X-43849Y-123696D01*
X-43821Y-123562D01*
X-43788Y-123430D01*
X-43753Y-123299D01*
X-43713Y-123168D01*
X-43670Y-123039D01*
X-43624Y-122911D01*
X-43573Y-122785D01*
X-43520Y-122659D01*
X-43462Y-122536D01*
X-43402Y-122414D01*
X-43338Y-122294D01*
X-43270Y-122175D01*
X-43200Y-122059D01*
X-43126Y-121945D01*
X-43049Y-121832D01*
X-42968Y-121722D01*
X-39074Y-125942D02*
X-39127Y-126028D01*
X-39184Y-126112D01*
X-39243Y-126194D01*
X-39306Y-126274D01*
X-39372Y-126351D01*
X-39440Y-126426D01*
X-39512Y-126498D01*
X-39586Y-126567D01*
X-39663Y-126633D01*
X-39742Y-126696D01*
X-39824Y-126756D01*
X-39908Y-126813D01*
X-39994Y-126867D01*
X-40082Y-126917D01*
X-40172Y-126964D01*
X-40263Y-127008D01*
X-40357Y-127047D01*
X-40451Y-127084D01*
X-40547Y-127116D01*
X-40645Y-127145D01*
X-40743Y-127170D01*
X-40842Y-127191D01*
X-40942Y-127209D01*
X-41042Y-127222D01*
X-41143Y-127232D01*
X-41245Y-127238D01*
X-41346Y-127240D01*
X-37126Y-122371D02*
X-37073Y-122285D01*
X-37016Y-122201D01*
X-36957Y-122119D01*
X-36894Y-122039D01*
X-36828Y-121962D01*
X-36760Y-121887D01*
X-36688Y-121815D01*
X-36614Y-121746D01*
X-36537Y-121680D01*
X-36458Y-121617D01*
X-36376Y-121557D01*
X-36292Y-121500D01*
X-36206Y-121446D01*
X-36118Y-121396D01*
X-36028Y-121349D01*
X-35937Y-121305D01*
X-35843Y-121266D01*
X-35749Y-121229D01*
X-35653Y-121197D01*
X-35555Y-121168D01*
X-35457Y-121143D01*
X-35358Y-121122D01*
X-35258Y-121104D01*
X-35158Y-121091D01*
X-35057Y-121081D01*
X-34955Y-121075D01*
X-34854Y-121073D01*
X-37126Y-122372D02*
X-39074Y-125942D01*
X-43942Y-116112D02*
X-32258Y-116112D01*
X-32258Y-110919D01*
X-32258Y-106059D02*
X-43942Y-106059D01*
X-43942Y-102814D01*
X-43940Y-102701D01*
X-43934Y-102588D01*
X-43924Y-102475D01*
X-43910Y-102362D01*
X-43893Y-102250D01*
X-43871Y-102139D01*
X-43846Y-102029D01*
X-43816Y-101919D01*
X-43783Y-101811D01*
X-43746Y-101704D01*
X-43706Y-101598D01*
X-43661Y-101494D01*
X-43613Y-101391D01*
X-43562Y-101290D01*
X-43507Y-101191D01*
X-43449Y-101094D01*
X-43387Y-100999D01*
X-43322Y-100906D01*
X-43254Y-100816D01*
X-43183Y-100728D01*
X-43108Y-100642D01*
X-43031Y-100559D01*
X-42951Y-100479D01*
X-42868Y-100402D01*
X-42782Y-100327D01*
X-42694Y-100256D01*
X-42604Y-100188D01*
X-42511Y-100123D01*
X-42416Y-100061D01*
X-42319Y-100003D01*
X-42220Y-99948D01*
X-42119Y-99897D01*
X-42016Y-99849D01*
X-41912Y-99804D01*
X-41806Y-99764D01*
X-41699Y-99727D01*
X-41591Y-99694D01*
X-41481Y-99664D01*
X-41371Y-99639D01*
X-41260Y-99617D01*
X-41148Y-99600D01*
X-41035Y-99586D01*
X-40922Y-99576D01*
X-40809Y-99570D01*
X-40696Y-99568D01*
X-40583Y-99570D01*
X-40470Y-99576D01*
X-40357Y-99586D01*
X-40244Y-99600D01*
X-40132Y-99617D01*
X-40021Y-99639D01*
X-39911Y-99664D01*
X-39801Y-99694D01*
X-39693Y-99727D01*
X-39586Y-99764D01*
X-39480Y-99804D01*
X-39376Y-99849D01*
X-39273Y-99897D01*
X-39172Y-99948D01*
X-39073Y-100003D01*
X-38976Y-100061D01*
X-38881Y-100123D01*
X-38788Y-100188D01*
X-38698Y-100256D01*
X-38610Y-100327D01*
X-38524Y-100402D01*
X-38441Y-100479D01*
X-38361Y-100559D01*
X-38284Y-100642D01*
X-38209Y-100728D01*
X-38138Y-100816D01*
X-38070Y-100906D01*
X-38005Y-100999D01*
X-37943Y-101094D01*
X-37885Y-101191D01*
X-37830Y-101290D01*
X-37779Y-101391D01*
X-37731Y-101494D01*
X-37686Y-101598D01*
X-37646Y-101704D01*
X-37609Y-101811D01*
X-37576Y-101919D01*
X-37546Y-102029D01*
X-37521Y-102139D01*
X-37499Y-102250D01*
X-37482Y-102362D01*
X-37468Y-102475D01*
X-37458Y-102588D01*
X-37452Y-102701D01*
X-37450Y-102814D01*
X-37451Y-102814D02*
X-37451Y-106059D01*
X-60254Y-130980D02*
X-60155Y-130982D01*
X-60055Y-130988D01*
X-59956Y-130997D01*
X-59858Y-131010D01*
X-59760Y-131027D01*
X-59662Y-131048D01*
X-59566Y-131073D01*
X-59471Y-131101D01*
X-59377Y-131133D01*
X-59284Y-131168D01*
X-59192Y-131207D01*
X-59102Y-131250D01*
X-59014Y-131295D01*
X-58927Y-131345D01*
X-58843Y-131397D01*
X-58760Y-131453D01*
X-58680Y-131511D01*
X-58602Y-131573D01*
X-58527Y-131638D01*
X-58454Y-131706D01*
X-58384Y-131776D01*
X-58316Y-131849D01*
X-58251Y-131924D01*
X-58189Y-132002D01*
X-58131Y-132082D01*
X-58075Y-132165D01*
X-58023Y-132249D01*
X-57973Y-132336D01*
X-57928Y-132424D01*
X-57885Y-132514D01*
X-57846Y-132606D01*
X-57811Y-132699D01*
X-57779Y-132793D01*
X-57751Y-132888D01*
X-57726Y-132984D01*
X-57705Y-133082D01*
X-57688Y-133180D01*
X-57675Y-133278D01*
X-57666Y-133377D01*
X-57660Y-133477D01*
X-57658Y-133576D01*
X-57660Y-133720D01*
X-57666Y-133865D01*
X-57675Y-134009D01*
X-57688Y-134152D01*
X-57705Y-134296D01*
X-57726Y-134439D01*
X-57751Y-134581D01*
X-57779Y-134722D01*
X-57811Y-134863D01*
X-57847Y-135003D01*
X-57886Y-135142D01*
X-57929Y-135280D01*
X-57976Y-135416D01*
X-58026Y-135552D01*
X-58080Y-135686D01*
X-58137Y-135818D01*
X-58198Y-135949D01*
X-58262Y-136078D01*
X-58330Y-136206D01*
X-58401Y-136332D01*
X-58475Y-136456D01*
X-58552Y-136577D01*
X-58633Y-136697D01*
X-58716Y-136815D01*
X-58803Y-136930D01*
X-58893Y-137043D01*
X-58986Y-137154D01*
X-59081Y-137262D01*
X-59180Y-137368D01*
X-59281Y-137471D01*
X-66746Y-137145D02*
X-66845Y-137143D01*
X-66945Y-137137D01*
X-67044Y-137128D01*
X-67142Y-137115D01*
X-67240Y-137098D01*
X-67338Y-137077D01*
X-67434Y-137052D01*
X-67529Y-137024D01*
X-67623Y-136992D01*
X-67716Y-136957D01*
X-67808Y-136918D01*
X-67898Y-136875D01*
X-67986Y-136830D01*
X-68073Y-136780D01*
X-68157Y-136728D01*
X-68240Y-136672D01*
X-68320Y-136614D01*
X-68398Y-136552D01*
X-68473Y-136487D01*
X-68546Y-136419D01*
X-68616Y-136349D01*
X-68684Y-136276D01*
X-68749Y-136201D01*
X-68811Y-136123D01*
X-68869Y-136043D01*
X-68925Y-135960D01*
X-68977Y-135876D01*
X-69027Y-135789D01*
X-69072Y-135701D01*
X-69115Y-135611D01*
X-69154Y-135519D01*
X-69189Y-135426D01*
X-69221Y-135332D01*
X-69249Y-135237D01*
X-69274Y-135141D01*
X-69295Y-135043D01*
X-69312Y-134945D01*
X-69325Y-134847D01*
X-69334Y-134748D01*
X-69340Y-134648D01*
X-69342Y-134549D01*
X-69340Y-134413D01*
X-69334Y-134277D01*
X-69325Y-134141D01*
X-69312Y-134005D01*
X-69294Y-133870D01*
X-69274Y-133736D01*
X-69249Y-133602D01*
X-69221Y-133468D01*
X-69188Y-133336D01*
X-69153Y-133205D01*
X-69113Y-133074D01*
X-69070Y-132945D01*
X-69024Y-132817D01*
X-68973Y-132691D01*
X-68920Y-132565D01*
X-68862Y-132442D01*
X-68802Y-132320D01*
X-68738Y-132200D01*
X-68670Y-132081D01*
X-68600Y-131965D01*
X-68526Y-131851D01*
X-68449Y-131738D01*
X-68368Y-131628D01*
X-64474Y-135848D02*
X-64527Y-135934D01*
X-64584Y-136018D01*
X-64643Y-136100D01*
X-64706Y-136180D01*
X-64772Y-136257D01*
X-64840Y-136332D01*
X-64912Y-136404D01*
X-64986Y-136473D01*
X-65063Y-136539D01*
X-65142Y-136602D01*
X-65224Y-136662D01*
X-65308Y-136719D01*
X-65394Y-136773D01*
X-65482Y-136823D01*
X-65572Y-136870D01*
X-65663Y-136914D01*
X-65757Y-136953D01*
X-65851Y-136990D01*
X-65947Y-137022D01*
X-66045Y-137051D01*
X-66143Y-137076D01*
X-66242Y-137097D01*
X-66342Y-137115D01*
X-66442Y-137128D01*
X-66543Y-137138D01*
X-66645Y-137144D01*
X-66746Y-137146D01*
X-62526Y-132277D02*
X-62473Y-132191D01*
X-62416Y-132107D01*
X-62357Y-132025D01*
X-62294Y-131945D01*
X-62228Y-131868D01*
X-62160Y-131793D01*
X-62088Y-131721D01*
X-62014Y-131652D01*
X-61937Y-131586D01*
X-61858Y-131523D01*
X-61776Y-131463D01*
X-61692Y-131406D01*
X-61606Y-131352D01*
X-61518Y-131302D01*
X-61428Y-131255D01*
X-61337Y-131211D01*
X-61243Y-131172D01*
X-61149Y-131135D01*
X-61053Y-131103D01*
X-60955Y-131074D01*
X-60857Y-131049D01*
X-60758Y-131028D01*
X-60658Y-131010D01*
X-60558Y-130997D01*
X-60457Y-130987D01*
X-60355Y-130981D01*
X-60254Y-130979D01*
X-62526Y-132278D02*
X-64474Y-135848D01*
X-69342Y-123938D02*
X-57658Y-123938D01*
X-69342Y-127183D02*
X-69342Y-120692D01*
X-57658Y-116112D02*
X-57658Y-110919D01*
X-57658Y-116112D02*
X-69342Y-116112D01*
X-69342Y-110919D01*
X-64149Y-112217D02*
X-64149Y-116112D01*
X-69342Y-106059D02*
X-57658Y-106059D01*
X-69342Y-106059D02*
X-69342Y-102814D01*
X-69340Y-102701D01*
X-69334Y-102588D01*
X-69324Y-102475D01*
X-69310Y-102362D01*
X-69293Y-102250D01*
X-69271Y-102139D01*
X-69246Y-102029D01*
X-69216Y-101919D01*
X-69183Y-101811D01*
X-69146Y-101704D01*
X-69106Y-101598D01*
X-69061Y-101494D01*
X-69013Y-101391D01*
X-68962Y-101290D01*
X-68907Y-101191D01*
X-68849Y-101094D01*
X-68787Y-100999D01*
X-68722Y-100906D01*
X-68654Y-100816D01*
X-68583Y-100728D01*
X-68508Y-100642D01*
X-68431Y-100559D01*
X-68351Y-100479D01*
X-68268Y-100402D01*
X-68182Y-100327D01*
X-68094Y-100256D01*
X-68004Y-100188D01*
X-67911Y-100123D01*
X-67816Y-100061D01*
X-67719Y-100003D01*
X-67620Y-99948D01*
X-67519Y-99897D01*
X-67416Y-99849D01*
X-67312Y-99804D01*
X-67206Y-99764D01*
X-67099Y-99727D01*
X-66991Y-99694D01*
X-66881Y-99664D01*
X-66771Y-99639D01*
X-66660Y-99617D01*
X-66548Y-99600D01*
X-66435Y-99586D01*
X-66322Y-99576D01*
X-66209Y-99570D01*
X-66096Y-99568D01*
X-65983Y-99570D01*
X-65870Y-99576D01*
X-65757Y-99586D01*
X-65644Y-99600D01*
X-65532Y-99617D01*
X-65421Y-99639D01*
X-65311Y-99664D01*
X-65201Y-99694D01*
X-65093Y-99727D01*
X-64986Y-99764D01*
X-64880Y-99804D01*
X-64776Y-99849D01*
X-64673Y-99897D01*
X-64572Y-99948D01*
X-64473Y-100003D01*
X-64376Y-100061D01*
X-64281Y-100123D01*
X-64188Y-100188D01*
X-64098Y-100256D01*
X-64010Y-100327D01*
X-63924Y-100402D01*
X-63841Y-100479D01*
X-63761Y-100559D01*
X-63684Y-100642D01*
X-63609Y-100728D01*
X-63538Y-100816D01*
X-63470Y-100906D01*
X-63405Y-100999D01*
X-63343Y-101094D01*
X-63285Y-101191D01*
X-63230Y-101290D01*
X-63179Y-101391D01*
X-63131Y-101494D01*
X-63086Y-101598D01*
X-63046Y-101704D01*
X-63009Y-101811D01*
X-62976Y-101919D01*
X-62946Y-102029D01*
X-62921Y-102139D01*
X-62899Y-102250D01*
X-62882Y-102362D01*
X-62868Y-102475D01*
X-62858Y-102588D01*
X-62852Y-102701D01*
X-62850Y-102814D01*
X-62851Y-102814D02*
X-62851Y-106059D01*
X-83058Y-125183D02*
X-94742Y-125183D01*
X-94742Y-121937D01*
X-94740Y-121824D01*
X-94734Y-121711D01*
X-94724Y-121598D01*
X-94710Y-121485D01*
X-94693Y-121373D01*
X-94671Y-121262D01*
X-94646Y-121152D01*
X-94616Y-121042D01*
X-94583Y-120934D01*
X-94546Y-120827D01*
X-94506Y-120721D01*
X-94461Y-120617D01*
X-94413Y-120514D01*
X-94362Y-120413D01*
X-94307Y-120314D01*
X-94249Y-120217D01*
X-94187Y-120122D01*
X-94122Y-120029D01*
X-94054Y-119939D01*
X-93983Y-119851D01*
X-93908Y-119765D01*
X-93831Y-119682D01*
X-93751Y-119602D01*
X-93668Y-119525D01*
X-93582Y-119450D01*
X-93494Y-119379D01*
X-93404Y-119311D01*
X-93311Y-119246D01*
X-93216Y-119184D01*
X-93119Y-119126D01*
X-93020Y-119071D01*
X-92919Y-119020D01*
X-92816Y-118972D01*
X-92712Y-118927D01*
X-92606Y-118887D01*
X-92499Y-118850D01*
X-92391Y-118817D01*
X-92281Y-118787D01*
X-92171Y-118762D01*
X-92060Y-118740D01*
X-91948Y-118723D01*
X-91835Y-118709D01*
X-91722Y-118699D01*
X-91609Y-118693D01*
X-91496Y-118691D01*
X-91496Y-118692D02*
X-86304Y-118692D01*
X-86304Y-118691D02*
X-86191Y-118693D01*
X-86078Y-118699D01*
X-85965Y-118709D01*
X-85852Y-118723D01*
X-85740Y-118740D01*
X-85629Y-118762D01*
X-85519Y-118787D01*
X-85409Y-118817D01*
X-85301Y-118850D01*
X-85194Y-118887D01*
X-85088Y-118927D01*
X-84984Y-118972D01*
X-84881Y-119020D01*
X-84780Y-119071D01*
X-84681Y-119126D01*
X-84584Y-119184D01*
X-84489Y-119246D01*
X-84396Y-119311D01*
X-84306Y-119379D01*
X-84218Y-119450D01*
X-84132Y-119525D01*
X-84049Y-119602D01*
X-83969Y-119682D01*
X-83892Y-119765D01*
X-83817Y-119851D01*
X-83746Y-119939D01*
X-83678Y-120029D01*
X-83613Y-120122D01*
X-83551Y-120217D01*
X-83493Y-120314D01*
X-83438Y-120413D01*
X-83387Y-120514D01*
X-83339Y-120617D01*
X-83294Y-120721D01*
X-83254Y-120827D01*
X-83217Y-120934D01*
X-83184Y-121042D01*
X-83154Y-121152D01*
X-83129Y-121262D01*
X-83107Y-121373D01*
X-83090Y-121485D01*
X-83076Y-121598D01*
X-83066Y-121711D01*
X-83060Y-121824D01*
X-83058Y-121937D01*
X-83058Y-125183D01*
X-83058Y-112412D02*
X-94742Y-112412D01*
X-83058Y-113710D02*
X-83058Y-111114D01*
X-94742Y-111114D02*
X-94742Y-113710D01*
X-94742Y-106059D02*
X-83058Y-106059D01*
X-94742Y-106059D02*
X-94742Y-102814D01*
X-94740Y-102701D01*
X-94734Y-102588D01*
X-94724Y-102475D01*
X-94710Y-102362D01*
X-94693Y-102250D01*
X-94671Y-102139D01*
X-94646Y-102029D01*
X-94616Y-101919D01*
X-94583Y-101811D01*
X-94546Y-101704D01*
X-94506Y-101598D01*
X-94461Y-101494D01*
X-94413Y-101391D01*
X-94362Y-101290D01*
X-94307Y-101191D01*
X-94249Y-101094D01*
X-94187Y-100999D01*
X-94122Y-100906D01*
X-94054Y-100816D01*
X-93983Y-100728D01*
X-93908Y-100642D01*
X-93831Y-100559D01*
X-93751Y-100479D01*
X-93668Y-100402D01*
X-93582Y-100327D01*
X-93494Y-100256D01*
X-93404Y-100188D01*
X-93311Y-100123D01*
X-93216Y-100061D01*
X-93119Y-100003D01*
X-93020Y-99948D01*
X-92919Y-99897D01*
X-92816Y-99849D01*
X-92712Y-99804D01*
X-92606Y-99764D01*
X-92499Y-99727D01*
X-92391Y-99694D01*
X-92281Y-99664D01*
X-92171Y-99639D01*
X-92060Y-99617D01*
X-91948Y-99600D01*
X-91835Y-99586D01*
X-91722Y-99576D01*
X-91609Y-99570D01*
X-91496Y-99568D01*
X-91383Y-99570D01*
X-91270Y-99576D01*
X-91157Y-99586D01*
X-91044Y-99600D01*
X-90932Y-99617D01*
X-90821Y-99639D01*
X-90711Y-99664D01*
X-90601Y-99694D01*
X-90493Y-99727D01*
X-90386Y-99764D01*
X-90280Y-99804D01*
X-90176Y-99849D01*
X-90073Y-99897D01*
X-89972Y-99948D01*
X-89873Y-100003D01*
X-89776Y-100061D01*
X-89681Y-100123D01*
X-89588Y-100188D01*
X-89498Y-100256D01*
X-89410Y-100327D01*
X-89324Y-100402D01*
X-89241Y-100479D01*
X-89161Y-100559D01*
X-89084Y-100642D01*
X-89009Y-100728D01*
X-88938Y-100816D01*
X-88870Y-100906D01*
X-88805Y-100999D01*
X-88743Y-101094D01*
X-88685Y-101191D01*
X-88630Y-101290D01*
X-88579Y-101391D01*
X-88531Y-101494D01*
X-88486Y-101598D01*
X-88446Y-101704D01*
X-88409Y-101811D01*
X-88376Y-101919D01*
X-88346Y-102029D01*
X-88321Y-102139D01*
X-88299Y-102250D01*
X-88282Y-102362D01*
X-88268Y-102475D01*
X-88258Y-102588D01*
X-88252Y-102701D01*
X-88250Y-102814D01*
X-88251Y-102814D02*
X-88251Y-106059D01*
X-88251Y-102164D02*
X-83058Y-99568D01*
X83058Y-200152D02*
X94742Y-196257D01*
X83058Y-192363D01*
X83058Y-187579D02*
X94742Y-187579D01*
X89549Y-183684D02*
X83058Y-187579D01*
X89549Y-183684D02*
X83058Y-179790D01*
X94742Y-179790D01*
X91496Y-174357D02*
X86304Y-174357D01*
X86191Y-174355D01*
X86078Y-174349D01*
X85965Y-174339D01*
X85852Y-174325D01*
X85740Y-174308D01*
X85629Y-174286D01*
X85519Y-174261D01*
X85409Y-174231D01*
X85301Y-174198D01*
X85194Y-174161D01*
X85088Y-174121D01*
X84984Y-174076D01*
X84881Y-174028D01*
X84780Y-173977D01*
X84681Y-173922D01*
X84584Y-173864D01*
X84489Y-173802D01*
X84396Y-173737D01*
X84306Y-173669D01*
X84218Y-173598D01*
X84132Y-173523D01*
X84049Y-173446D01*
X83969Y-173366D01*
X83892Y-173283D01*
X83817Y-173197D01*
X83746Y-173109D01*
X83678Y-173019D01*
X83613Y-172926D01*
X83551Y-172831D01*
X83493Y-172734D01*
X83438Y-172635D01*
X83387Y-172534D01*
X83339Y-172431D01*
X83294Y-172327D01*
X83254Y-172221D01*
X83217Y-172114D01*
X83184Y-172006D01*
X83154Y-171896D01*
X83129Y-171786D01*
X83107Y-171675D01*
X83090Y-171563D01*
X83076Y-171450D01*
X83066Y-171337D01*
X83060Y-171224D01*
X83058Y-171111D01*
X83060Y-170998D01*
X83066Y-170885D01*
X83076Y-170772D01*
X83090Y-170659D01*
X83107Y-170547D01*
X83129Y-170436D01*
X83154Y-170326D01*
X83184Y-170216D01*
X83217Y-170108D01*
X83254Y-170001D01*
X83294Y-169895D01*
X83339Y-169791D01*
X83387Y-169688D01*
X83438Y-169587D01*
X83493Y-169488D01*
X83551Y-169391D01*
X83613Y-169296D01*
X83678Y-169203D01*
X83746Y-169113D01*
X83817Y-169025D01*
X83892Y-168939D01*
X83969Y-168856D01*
X84049Y-168776D01*
X84132Y-168699D01*
X84218Y-168624D01*
X84306Y-168553D01*
X84396Y-168485D01*
X84489Y-168420D01*
X84584Y-168358D01*
X84681Y-168300D01*
X84780Y-168245D01*
X84881Y-168194D01*
X84984Y-168146D01*
X85088Y-168101D01*
X85194Y-168061D01*
X85301Y-168024D01*
X85409Y-167991D01*
X85519Y-167961D01*
X85629Y-167936D01*
X85740Y-167914D01*
X85852Y-167897D01*
X85965Y-167883D01*
X86078Y-167873D01*
X86191Y-167867D01*
X86304Y-167865D01*
X86304Y-167866D02*
X91496Y-167866D01*
X91496Y-167865D02*
X91609Y-167867D01*
X91722Y-167873D01*
X91835Y-167883D01*
X91948Y-167897D01*
X92060Y-167914D01*
X92171Y-167936D01*
X92281Y-167961D01*
X92391Y-167991D01*
X92499Y-168024D01*
X92606Y-168061D01*
X92712Y-168101D01*
X92816Y-168146D01*
X92919Y-168194D01*
X93020Y-168245D01*
X93119Y-168300D01*
X93216Y-168358D01*
X93311Y-168420D01*
X93404Y-168485D01*
X93494Y-168553D01*
X93582Y-168624D01*
X93668Y-168699D01*
X93751Y-168776D01*
X93831Y-168856D01*
X93908Y-168939D01*
X93983Y-169025D01*
X94054Y-169113D01*
X94122Y-169203D01*
X94187Y-169296D01*
X94249Y-169391D01*
X94307Y-169488D01*
X94362Y-169587D01*
X94413Y-169688D01*
X94461Y-169791D01*
X94506Y-169895D01*
X94546Y-170001D01*
X94583Y-170108D01*
X94616Y-170216D01*
X94646Y-170326D01*
X94671Y-170436D01*
X94693Y-170547D01*
X94710Y-170659D01*
X94724Y-170772D01*
X94734Y-170885D01*
X94740Y-170998D01*
X94742Y-171111D01*
X94740Y-171224D01*
X94734Y-171337D01*
X94724Y-171450D01*
X94710Y-171563D01*
X94693Y-171675D01*
X94671Y-171786D01*
X94646Y-171896D01*
X94616Y-172006D01*
X94583Y-172114D01*
X94546Y-172221D01*
X94506Y-172327D01*
X94461Y-172431D01*
X94413Y-172534D01*
X94362Y-172635D01*
X94307Y-172734D01*
X94249Y-172831D01*
X94187Y-172926D01*
X94122Y-173019D01*
X94054Y-173109D01*
X93983Y-173197D01*
X93908Y-173283D01*
X93831Y-173366D01*
X93751Y-173446D01*
X93668Y-173523D01*
X93582Y-173598D01*
X93494Y-173669D01*
X93404Y-173737D01*
X93311Y-173802D01*
X93216Y-173864D01*
X93119Y-173922D01*
X93020Y-173977D01*
X92919Y-174028D01*
X92816Y-174076D01*
X92712Y-174121D01*
X92606Y-174161D01*
X92499Y-174198D01*
X92391Y-174231D01*
X92281Y-174261D01*
X92171Y-174286D01*
X92060Y-174308D01*
X91948Y-174325D01*
X91835Y-174339D01*
X91722Y-174349D01*
X91609Y-174355D01*
X91496Y-174357D01*
X94742Y-160443D02*
X83058Y-160443D01*
X83058Y-157198D02*
X83058Y-163689D01*
X62851Y-193661D02*
X62851Y-195608D01*
X62851Y-193661D02*
X69342Y-193661D01*
X69342Y-197556D01*
X69340Y-197655D01*
X69334Y-197755D01*
X69325Y-197854D01*
X69312Y-197952D01*
X69295Y-198050D01*
X69274Y-198148D01*
X69249Y-198244D01*
X69221Y-198339D01*
X69189Y-198433D01*
X69154Y-198526D01*
X69115Y-198618D01*
X69072Y-198708D01*
X69027Y-198796D01*
X68977Y-198883D01*
X68925Y-198967D01*
X68869Y-199050D01*
X68811Y-199130D01*
X68749Y-199208D01*
X68684Y-199283D01*
X68616Y-199356D01*
X68546Y-199426D01*
X68473Y-199494D01*
X68398Y-199559D01*
X68320Y-199621D01*
X68240Y-199679D01*
X68157Y-199735D01*
X68073Y-199787D01*
X67986Y-199837D01*
X67898Y-199882D01*
X67808Y-199925D01*
X67716Y-199964D01*
X67623Y-199999D01*
X67529Y-200031D01*
X67434Y-200059D01*
X67338Y-200084D01*
X67240Y-200105D01*
X67142Y-200122D01*
X67044Y-200135D01*
X66945Y-200144D01*
X66845Y-200150D01*
X66746Y-200152D01*
X60254Y-200152D01*
X60254Y-200153D02*
X60155Y-200151D01*
X60055Y-200145D01*
X59956Y-200136D01*
X59858Y-200123D01*
X59760Y-200105D01*
X59662Y-200085D01*
X59566Y-200060D01*
X59470Y-200032D01*
X59376Y-200000D01*
X59283Y-199965D01*
X59192Y-199926D01*
X59102Y-199883D01*
X59013Y-199838D01*
X58927Y-199788D01*
X58842Y-199736D01*
X58760Y-199680D01*
X58680Y-199621D01*
X58602Y-199560D01*
X58526Y-199495D01*
X58453Y-199427D01*
X58383Y-199357D01*
X58315Y-199284D01*
X58250Y-199208D01*
X58189Y-199130D01*
X58130Y-199050D01*
X58074Y-198968D01*
X58022Y-198883D01*
X57973Y-198797D01*
X57927Y-198708D01*
X57884Y-198618D01*
X57845Y-198527D01*
X57810Y-198434D01*
X57778Y-198340D01*
X57750Y-198244D01*
X57725Y-198148D01*
X57705Y-198050D01*
X57687Y-197952D01*
X57674Y-197854D01*
X57665Y-197755D01*
X57659Y-197656D01*
X57657Y-197556D01*
X57658Y-197556D02*
X57658Y-193661D01*
X57658Y-187960D02*
X69342Y-187960D01*
X69342Y-181469D02*
X57658Y-187960D01*
X57658Y-181469D02*
X69342Y-181469D01*
X69342Y-175768D02*
X57658Y-175768D01*
X57658Y-172523D01*
X57660Y-172410D01*
X57666Y-172297D01*
X57676Y-172184D01*
X57690Y-172071D01*
X57707Y-171959D01*
X57729Y-171848D01*
X57754Y-171738D01*
X57784Y-171628D01*
X57817Y-171520D01*
X57854Y-171413D01*
X57894Y-171307D01*
X57939Y-171203D01*
X57987Y-171100D01*
X58038Y-170999D01*
X58093Y-170900D01*
X58151Y-170803D01*
X58213Y-170708D01*
X58278Y-170615D01*
X58346Y-170525D01*
X58417Y-170437D01*
X58492Y-170351D01*
X58569Y-170268D01*
X58649Y-170188D01*
X58732Y-170111D01*
X58818Y-170036D01*
X58906Y-169965D01*
X58996Y-169897D01*
X59089Y-169832D01*
X59184Y-169770D01*
X59281Y-169712D01*
X59380Y-169657D01*
X59481Y-169606D01*
X59584Y-169558D01*
X59688Y-169513D01*
X59794Y-169473D01*
X59901Y-169436D01*
X60009Y-169403D01*
X60119Y-169373D01*
X60229Y-169348D01*
X60340Y-169326D01*
X60452Y-169309D01*
X60565Y-169295D01*
X60678Y-169285D01*
X60791Y-169279D01*
X60904Y-169277D01*
X66096Y-169277D01*
X66209Y-169279D01*
X66322Y-169285D01*
X66435Y-169295D01*
X66548Y-169309D01*
X66660Y-169326D01*
X66771Y-169348D01*
X66881Y-169373D01*
X66991Y-169403D01*
X67099Y-169436D01*
X67206Y-169473D01*
X67312Y-169513D01*
X67416Y-169558D01*
X67519Y-169606D01*
X67620Y-169657D01*
X67719Y-169712D01*
X67816Y-169770D01*
X67911Y-169832D01*
X68004Y-169897D01*
X68094Y-169965D01*
X68182Y-170036D01*
X68268Y-170111D01*
X68351Y-170188D01*
X68431Y-170268D01*
X68508Y-170351D01*
X68583Y-170437D01*
X68654Y-170525D01*
X68722Y-170615D01*
X68787Y-170708D01*
X68849Y-170803D01*
X68907Y-170900D01*
X68962Y-170999D01*
X69013Y-171100D01*
X69061Y-171203D01*
X69106Y-171307D01*
X69146Y-171413D01*
X69183Y-171520D01*
X69216Y-171628D01*
X69246Y-171738D01*
X69271Y-171848D01*
X69293Y-171959D01*
X69310Y-172071D01*
X69324Y-172184D01*
X69334Y-172297D01*
X69340Y-172410D01*
X69342Y-172523D01*
X69342Y-175768D01*
X35179Y-193661D02*
X35072Y-193663D01*
X34966Y-193669D01*
X34860Y-193679D01*
X34754Y-193692D01*
X34648Y-193710D01*
X34544Y-193731D01*
X34440Y-193756D01*
X34337Y-193785D01*
X34236Y-193817D01*
X34136Y-193854D01*
X34037Y-193894D01*
X33939Y-193937D01*
X33843Y-193984D01*
X33749Y-194035D01*
X33657Y-194089D01*
X33567Y-194146D01*
X33479Y-194206D01*
X33394Y-194270D01*
X33311Y-194337D01*
X33230Y-194407D01*
X33152Y-194479D01*
X33076Y-194555D01*
X33004Y-194633D01*
X32934Y-194714D01*
X32867Y-194797D01*
X32803Y-194882D01*
X32743Y-194970D01*
X32686Y-195060D01*
X32632Y-195152D01*
X32581Y-195246D01*
X32534Y-195342D01*
X32491Y-195440D01*
X32451Y-195539D01*
X32414Y-195639D01*
X32382Y-195740D01*
X32353Y-195843D01*
X32328Y-195947D01*
X32307Y-196051D01*
X32289Y-196157D01*
X32276Y-196263D01*
X32266Y-196369D01*
X32260Y-196475D01*
X32258Y-196582D01*
X32260Y-196703D01*
X32266Y-196824D01*
X32276Y-196944D01*
X32289Y-197065D01*
X32307Y-197184D01*
X32328Y-197304D01*
X32353Y-197422D01*
X32382Y-197539D01*
X32415Y-197656D01*
X32451Y-197771D01*
X32492Y-197885D01*
X32535Y-197998D01*
X32583Y-198110D01*
X32634Y-198219D01*
X32689Y-198327D01*
X32747Y-198434D01*
X32808Y-198538D01*
X32873Y-198640D01*
X32941Y-198740D01*
X33012Y-198838D01*
X33086Y-198934D01*
X33163Y-199027D01*
X33244Y-199117D01*
X33327Y-199205D01*
X33413Y-199290D01*
X33502Y-199373D01*
X33593Y-199452D01*
X33687Y-199529D01*
X33783Y-199602D01*
X33881Y-199672D01*
X33982Y-199739D01*
X34085Y-199803D01*
X34190Y-199864D01*
X34297Y-199921D01*
X34405Y-199974D01*
X34515Y-200024D01*
X34627Y-200071D01*
X34740Y-200113D01*
X34855Y-200152D01*
X37451Y-194635D02*
X37373Y-194556D01*
X37293Y-194480D01*
X37210Y-194407D01*
X37124Y-194337D01*
X37037Y-194270D01*
X36946Y-194206D01*
X36854Y-194146D01*
X36760Y-194088D01*
X36663Y-194034D01*
X36565Y-193984D01*
X36465Y-193937D01*
X36364Y-193893D01*
X36261Y-193853D01*
X36156Y-193817D01*
X36051Y-193785D01*
X35944Y-193756D01*
X35837Y-193731D01*
X35728Y-193709D01*
X35619Y-193692D01*
X35510Y-193678D01*
X35400Y-193669D01*
X35289Y-193663D01*
X35179Y-193661D01*
X37451Y-194635D02*
X43942Y-200152D01*
X43942Y-193661D01*
X37451Y-188172D02*
X37451Y-184926D01*
X37450Y-184926D02*
X37452Y-184813D01*
X37458Y-184700D01*
X37468Y-184587D01*
X37482Y-184474D01*
X37499Y-184362D01*
X37521Y-184251D01*
X37546Y-184141D01*
X37576Y-184031D01*
X37609Y-183923D01*
X37646Y-183816D01*
X37686Y-183710D01*
X37731Y-183606D01*
X37779Y-183503D01*
X37830Y-183402D01*
X37885Y-183303D01*
X37943Y-183206D01*
X38005Y-183111D01*
X38070Y-183018D01*
X38138Y-182928D01*
X38209Y-182840D01*
X38284Y-182754D01*
X38361Y-182671D01*
X38441Y-182591D01*
X38524Y-182514D01*
X38610Y-182439D01*
X38698Y-182368D01*
X38788Y-182300D01*
X38881Y-182235D01*
X38976Y-182173D01*
X39073Y-182115D01*
X39172Y-182060D01*
X39273Y-182009D01*
X39376Y-181961D01*
X39480Y-181916D01*
X39586Y-181876D01*
X39693Y-181839D01*
X39801Y-181806D01*
X39911Y-181776D01*
X40021Y-181751D01*
X40132Y-181729D01*
X40244Y-181712D01*
X40357Y-181698D01*
X40470Y-181688D01*
X40583Y-181682D01*
X40696Y-181680D01*
X40809Y-181682D01*
X40922Y-181688D01*
X41035Y-181698D01*
X41148Y-181712D01*
X41260Y-181729D01*
X41371Y-181751D01*
X41481Y-181776D01*
X41591Y-181806D01*
X41699Y-181839D01*
X41806Y-181876D01*
X41912Y-181916D01*
X42016Y-181961D01*
X42119Y-182009D01*
X42220Y-182060D01*
X42319Y-182115D01*
X42416Y-182173D01*
X42511Y-182235D01*
X42604Y-182300D01*
X42694Y-182368D01*
X42782Y-182439D01*
X42868Y-182514D01*
X42951Y-182591D01*
X43031Y-182671D01*
X43108Y-182754D01*
X43183Y-182840D01*
X43254Y-182928D01*
X43322Y-183018D01*
X43387Y-183111D01*
X43449Y-183206D01*
X43507Y-183303D01*
X43562Y-183402D01*
X43613Y-183503D01*
X43661Y-183606D01*
X43706Y-183710D01*
X43746Y-183816D01*
X43783Y-183923D01*
X43816Y-184031D01*
X43846Y-184141D01*
X43871Y-184251D01*
X43893Y-184362D01*
X43910Y-184474D01*
X43924Y-184587D01*
X43934Y-184700D01*
X43940Y-184813D01*
X43942Y-184926D01*
X43942Y-188172D01*
X32258Y-188172D01*
X32258Y-184926D01*
X32260Y-184825D01*
X32266Y-184725D01*
X32276Y-184625D01*
X32289Y-184525D01*
X32307Y-184426D01*
X32328Y-184327D01*
X32353Y-184230D01*
X32382Y-184133D01*
X32415Y-184038D01*
X32451Y-183944D01*
X32491Y-183852D01*
X32534Y-183761D01*
X32581Y-183672D01*
X32631Y-183585D01*
X32685Y-183499D01*
X32742Y-183416D01*
X32802Y-183336D01*
X32865Y-183257D01*
X32932Y-183181D01*
X33001Y-183108D01*
X33073Y-183038D01*
X33147Y-182970D01*
X33224Y-182905D01*
X33304Y-182844D01*
X33386Y-182785D01*
X33470Y-182730D01*
X33556Y-182678D01*
X33644Y-182629D01*
X33734Y-182584D01*
X33826Y-182542D01*
X33919Y-182504D01*
X34014Y-182470D01*
X34109Y-182439D01*
X34206Y-182412D01*
X34304Y-182389D01*
X34403Y-182369D01*
X34503Y-182354D01*
X34603Y-182342D01*
X34703Y-182334D01*
X34804Y-182330D01*
X34904Y-182330D01*
X35005Y-182334D01*
X35105Y-182342D01*
X35205Y-182354D01*
X35305Y-182369D01*
X35404Y-182389D01*
X35502Y-182412D01*
X35599Y-182439D01*
X35694Y-182470D01*
X35789Y-182504D01*
X35882Y-182542D01*
X35974Y-182584D01*
X36064Y-182629D01*
X36152Y-182678D01*
X36238Y-182730D01*
X36322Y-182785D01*
X36404Y-182844D01*
X36484Y-182905D01*
X36561Y-182970D01*
X36635Y-183038D01*
X36707Y-183108D01*
X36776Y-183181D01*
X36843Y-183257D01*
X36906Y-183336D01*
X36966Y-183416D01*
X37023Y-183499D01*
X37077Y-183585D01*
X37127Y-183672D01*
X37174Y-183761D01*
X37217Y-183852D01*
X37257Y-183944D01*
X37293Y-184038D01*
X37326Y-184133D01*
X37355Y-184230D01*
X37380Y-184327D01*
X37401Y-184426D01*
X37419Y-184525D01*
X37432Y-184625D01*
X37442Y-184725D01*
X37448Y-184825D01*
X37450Y-184926D01*
X9779Y-193661D02*
X9672Y-193663D01*
X9566Y-193669D01*
X9460Y-193679D01*
X9354Y-193692D01*
X9248Y-193710D01*
X9144Y-193731D01*
X9040Y-193756D01*
X8937Y-193785D01*
X8836Y-193817D01*
X8736Y-193854D01*
X8637Y-193894D01*
X8539Y-193937D01*
X8443Y-193984D01*
X8349Y-194035D01*
X8257Y-194089D01*
X8167Y-194146D01*
X8079Y-194206D01*
X7994Y-194270D01*
X7911Y-194337D01*
X7830Y-194407D01*
X7752Y-194479D01*
X7676Y-194555D01*
X7604Y-194633D01*
X7534Y-194714D01*
X7467Y-194797D01*
X7403Y-194882D01*
X7343Y-194970D01*
X7286Y-195060D01*
X7232Y-195152D01*
X7181Y-195246D01*
X7134Y-195342D01*
X7091Y-195440D01*
X7051Y-195539D01*
X7014Y-195639D01*
X6982Y-195740D01*
X6953Y-195843D01*
X6928Y-195947D01*
X6907Y-196051D01*
X6889Y-196157D01*
X6876Y-196263D01*
X6866Y-196369D01*
X6860Y-196475D01*
X6858Y-196582D01*
X6860Y-196703D01*
X6866Y-196824D01*
X6876Y-196944D01*
X6889Y-197065D01*
X6907Y-197184D01*
X6928Y-197304D01*
X6953Y-197422D01*
X6982Y-197539D01*
X7015Y-197656D01*
X7051Y-197771D01*
X7092Y-197885D01*
X7135Y-197998D01*
X7183Y-198110D01*
X7234Y-198219D01*
X7289Y-198327D01*
X7347Y-198434D01*
X7408Y-198538D01*
X7473Y-198640D01*
X7541Y-198740D01*
X7612Y-198838D01*
X7686Y-198934D01*
X7763Y-199027D01*
X7844Y-199117D01*
X7927Y-199205D01*
X8013Y-199290D01*
X8102Y-199373D01*
X8193Y-199452D01*
X8287Y-199529D01*
X8383Y-199602D01*
X8481Y-199672D01*
X8582Y-199739D01*
X8685Y-199803D01*
X8790Y-199864D01*
X8897Y-199921D01*
X9005Y-199974D01*
X9115Y-200024D01*
X9227Y-200071D01*
X9340Y-200113D01*
X9455Y-200152D01*
X12051Y-194635D02*
X11973Y-194556D01*
X11893Y-194480D01*
X11810Y-194407D01*
X11724Y-194337D01*
X11637Y-194270D01*
X11546Y-194206D01*
X11454Y-194146D01*
X11360Y-194088D01*
X11263Y-194034D01*
X11165Y-193984D01*
X11065Y-193937D01*
X10964Y-193893D01*
X10861Y-193853D01*
X10756Y-193817D01*
X10651Y-193785D01*
X10544Y-193756D01*
X10437Y-193731D01*
X10328Y-193709D01*
X10219Y-193692D01*
X10110Y-193678D01*
X10000Y-193669D01*
X9889Y-193663D01*
X9779Y-193661D01*
X12051Y-194635D02*
X18542Y-200152D01*
X18542Y-193661D01*
X18542Y-189371D02*
X6858Y-185476D01*
X18542Y-181582D01*
X15621Y-182555D02*
X15621Y-188397D01*
X-15946Y-200152D02*
X-18542Y-196906D01*
X-6858Y-196906D01*
X-6858Y-193661D02*
X-6858Y-200152D01*
X-6858Y-189371D02*
X-18542Y-185476D01*
X-6858Y-181582D01*
X-9779Y-182555D02*
X-9779Y-188397D01*
X-41346Y-200152D02*
X-43942Y-196906D01*
X-32258Y-196906D01*
X-32258Y-193661D02*
X-32258Y-200152D01*
X-38749Y-188172D02*
X-38749Y-184926D01*
X-38750Y-184926D02*
X-38748Y-184813D01*
X-38742Y-184700D01*
X-38732Y-184587D01*
X-38718Y-184474D01*
X-38701Y-184362D01*
X-38679Y-184251D01*
X-38654Y-184141D01*
X-38624Y-184031D01*
X-38591Y-183923D01*
X-38554Y-183816D01*
X-38514Y-183710D01*
X-38469Y-183606D01*
X-38421Y-183503D01*
X-38370Y-183402D01*
X-38315Y-183303D01*
X-38257Y-183206D01*
X-38195Y-183111D01*
X-38130Y-183018D01*
X-38062Y-182928D01*
X-37991Y-182840D01*
X-37916Y-182754D01*
X-37839Y-182671D01*
X-37759Y-182591D01*
X-37676Y-182514D01*
X-37590Y-182439D01*
X-37502Y-182368D01*
X-37412Y-182300D01*
X-37319Y-182235D01*
X-37224Y-182173D01*
X-37127Y-182115D01*
X-37028Y-182060D01*
X-36927Y-182009D01*
X-36824Y-181961D01*
X-36720Y-181916D01*
X-36614Y-181876D01*
X-36507Y-181839D01*
X-36399Y-181806D01*
X-36289Y-181776D01*
X-36179Y-181751D01*
X-36068Y-181729D01*
X-35956Y-181712D01*
X-35843Y-181698D01*
X-35730Y-181688D01*
X-35617Y-181682D01*
X-35504Y-181680D01*
X-35391Y-181682D01*
X-35278Y-181688D01*
X-35165Y-181698D01*
X-35052Y-181712D01*
X-34940Y-181729D01*
X-34829Y-181751D01*
X-34719Y-181776D01*
X-34609Y-181806D01*
X-34501Y-181839D01*
X-34394Y-181876D01*
X-34288Y-181916D01*
X-34184Y-181961D01*
X-34081Y-182009D01*
X-33980Y-182060D01*
X-33881Y-182115D01*
X-33784Y-182173D01*
X-33689Y-182235D01*
X-33596Y-182300D01*
X-33506Y-182368D01*
X-33418Y-182439D01*
X-33332Y-182514D01*
X-33249Y-182591D01*
X-33169Y-182671D01*
X-33092Y-182754D01*
X-33017Y-182840D01*
X-32946Y-182928D01*
X-32878Y-183018D01*
X-32813Y-183111D01*
X-32751Y-183206D01*
X-32693Y-183303D01*
X-32638Y-183402D01*
X-32587Y-183503D01*
X-32539Y-183606D01*
X-32494Y-183710D01*
X-32454Y-183816D01*
X-32417Y-183923D01*
X-32384Y-184031D01*
X-32354Y-184141D01*
X-32329Y-184251D01*
X-32307Y-184362D01*
X-32290Y-184474D01*
X-32276Y-184587D01*
X-32266Y-184700D01*
X-32260Y-184813D01*
X-32258Y-184926D01*
X-32258Y-188172D01*
X-43942Y-188172D01*
X-43942Y-184926D01*
X-43940Y-184825D01*
X-43934Y-184725D01*
X-43924Y-184625D01*
X-43911Y-184525D01*
X-43893Y-184426D01*
X-43872Y-184327D01*
X-43847Y-184230D01*
X-43818Y-184133D01*
X-43785Y-184038D01*
X-43749Y-183944D01*
X-43709Y-183852D01*
X-43666Y-183761D01*
X-43619Y-183672D01*
X-43569Y-183585D01*
X-43515Y-183499D01*
X-43458Y-183416D01*
X-43398Y-183336D01*
X-43335Y-183257D01*
X-43268Y-183181D01*
X-43199Y-183108D01*
X-43127Y-183038D01*
X-43053Y-182970D01*
X-42976Y-182905D01*
X-42896Y-182844D01*
X-42814Y-182785D01*
X-42730Y-182730D01*
X-42644Y-182678D01*
X-42556Y-182629D01*
X-42466Y-182584D01*
X-42374Y-182542D01*
X-42281Y-182504D01*
X-42186Y-182470D01*
X-42091Y-182439D01*
X-41994Y-182412D01*
X-41896Y-182389D01*
X-41797Y-182369D01*
X-41697Y-182354D01*
X-41597Y-182342D01*
X-41497Y-182334D01*
X-41396Y-182330D01*
X-41296Y-182330D01*
X-41195Y-182334D01*
X-41095Y-182342D01*
X-40995Y-182354D01*
X-40895Y-182369D01*
X-40796Y-182389D01*
X-40698Y-182412D01*
X-40601Y-182439D01*
X-40506Y-182470D01*
X-40411Y-182504D01*
X-40318Y-182542D01*
X-40226Y-182584D01*
X-40136Y-182629D01*
X-40048Y-182678D01*
X-39962Y-182730D01*
X-39878Y-182785D01*
X-39796Y-182844D01*
X-39716Y-182905D01*
X-39639Y-182970D01*
X-39565Y-183038D01*
X-39493Y-183108D01*
X-39424Y-183181D01*
X-39357Y-183257D01*
X-39294Y-183336D01*
X-39234Y-183416D01*
X-39177Y-183499D01*
X-39123Y-183585D01*
X-39073Y-183672D01*
X-39026Y-183761D01*
X-38983Y-183852D01*
X-38943Y-183944D01*
X-38907Y-184038D01*
X-38874Y-184133D01*
X-38845Y-184230D01*
X-38820Y-184327D01*
X-38799Y-184426D01*
X-38781Y-184525D01*
X-38768Y-184625D01*
X-38758Y-184725D01*
X-38752Y-184825D01*
X-38750Y-184926D01*
X-57658Y-196257D02*
X-69342Y-200152D01*
X-69342Y-192363D02*
X-57658Y-196257D01*
X-57658Y-187692D02*
X-69342Y-187692D01*
X-69342Y-184446D01*
X-69340Y-184333D01*
X-69334Y-184220D01*
X-69324Y-184107D01*
X-69310Y-183994D01*
X-69293Y-183882D01*
X-69271Y-183771D01*
X-69246Y-183661D01*
X-69216Y-183551D01*
X-69183Y-183443D01*
X-69146Y-183336D01*
X-69106Y-183230D01*
X-69061Y-183126D01*
X-69013Y-183023D01*
X-68962Y-182922D01*
X-68907Y-182823D01*
X-68849Y-182726D01*
X-68787Y-182631D01*
X-68722Y-182538D01*
X-68654Y-182448D01*
X-68583Y-182360D01*
X-68508Y-182274D01*
X-68431Y-182191D01*
X-68351Y-182111D01*
X-68268Y-182034D01*
X-68182Y-181959D01*
X-68094Y-181888D01*
X-68004Y-181820D01*
X-67911Y-181755D01*
X-67816Y-181693D01*
X-67719Y-181635D01*
X-67620Y-181580D01*
X-67519Y-181529D01*
X-67416Y-181481D01*
X-67312Y-181436D01*
X-67206Y-181396D01*
X-67099Y-181359D01*
X-66991Y-181326D01*
X-66881Y-181296D01*
X-66771Y-181271D01*
X-66660Y-181249D01*
X-66548Y-181232D01*
X-66435Y-181218D01*
X-66322Y-181208D01*
X-66209Y-181202D01*
X-66096Y-181200D01*
X-66096Y-181201D02*
X-60904Y-181201D01*
X-60904Y-181200D02*
X-60791Y-181202D01*
X-60678Y-181208D01*
X-60565Y-181218D01*
X-60452Y-181232D01*
X-60340Y-181249D01*
X-60229Y-181271D01*
X-60119Y-181296D01*
X-60009Y-181326D01*
X-59901Y-181359D01*
X-59794Y-181396D01*
X-59688Y-181436D01*
X-59584Y-181481D01*
X-59481Y-181529D01*
X-59380Y-181580D01*
X-59281Y-181635D01*
X-59184Y-181693D01*
X-59089Y-181755D01*
X-58996Y-181820D01*
X-58906Y-181888D01*
X-58818Y-181959D01*
X-58732Y-182034D01*
X-58649Y-182111D01*
X-58569Y-182191D01*
X-58492Y-182274D01*
X-58417Y-182360D01*
X-58346Y-182448D01*
X-58278Y-182538D01*
X-58213Y-182631D01*
X-58151Y-182726D01*
X-58093Y-182823D01*
X-58038Y-182922D01*
X-57987Y-183023D01*
X-57939Y-183126D01*
X-57894Y-183230D01*
X-57854Y-183336D01*
X-57817Y-183443D01*
X-57784Y-183551D01*
X-57754Y-183661D01*
X-57729Y-183771D01*
X-57707Y-183882D01*
X-57690Y-183994D01*
X-57676Y-184107D01*
X-57666Y-184220D01*
X-57660Y-184333D01*
X-57658Y-184446D01*
X-57658Y-187692D01*
X-57658Y-175500D02*
X-69342Y-175500D01*
X-69342Y-172254D01*
X-69340Y-172141D01*
X-69334Y-172028D01*
X-69324Y-171915D01*
X-69310Y-171802D01*
X-69293Y-171690D01*
X-69271Y-171579D01*
X-69246Y-171469D01*
X-69216Y-171359D01*
X-69183Y-171251D01*
X-69146Y-171144D01*
X-69106Y-171038D01*
X-69061Y-170934D01*
X-69013Y-170831D01*
X-68962Y-170730D01*
X-68907Y-170631D01*
X-68849Y-170534D01*
X-68787Y-170439D01*
X-68722Y-170346D01*
X-68654Y-170256D01*
X-68583Y-170168D01*
X-68508Y-170082D01*
X-68431Y-169999D01*
X-68351Y-169919D01*
X-68268Y-169842D01*
X-68182Y-169767D01*
X-68094Y-169696D01*
X-68004Y-169628D01*
X-67911Y-169563D01*
X-67816Y-169501D01*
X-67719Y-169443D01*
X-67620Y-169388D01*
X-67519Y-169337D01*
X-67416Y-169289D01*
X-67312Y-169244D01*
X-67206Y-169204D01*
X-67099Y-169167D01*
X-66991Y-169134D01*
X-66881Y-169104D01*
X-66771Y-169079D01*
X-66660Y-169057D01*
X-66548Y-169040D01*
X-66435Y-169026D01*
X-66322Y-169016D01*
X-66209Y-169010D01*
X-66096Y-169008D01*
X-66096Y-169009D02*
X-60904Y-169009D01*
X-60904Y-169008D02*
X-60791Y-169010D01*
X-60678Y-169016D01*
X-60565Y-169026D01*
X-60452Y-169040D01*
X-60340Y-169057D01*
X-60229Y-169079D01*
X-60119Y-169104D01*
X-60009Y-169134D01*
X-59901Y-169167D01*
X-59794Y-169204D01*
X-59688Y-169244D01*
X-59584Y-169289D01*
X-59481Y-169337D01*
X-59380Y-169388D01*
X-59281Y-169443D01*
X-59184Y-169501D01*
X-59089Y-169563D01*
X-58996Y-169628D01*
X-58906Y-169696D01*
X-58818Y-169767D01*
X-58732Y-169842D01*
X-58649Y-169919D01*
X-58569Y-169999D01*
X-58492Y-170082D01*
X-58417Y-170168D01*
X-58346Y-170256D01*
X-58278Y-170346D01*
X-58213Y-170439D01*
X-58151Y-170534D01*
X-58093Y-170631D01*
X-58038Y-170730D01*
X-57987Y-170831D01*
X-57939Y-170934D01*
X-57894Y-171038D01*
X-57854Y-171144D01*
X-57817Y-171251D01*
X-57784Y-171359D01*
X-57754Y-171469D01*
X-57729Y-171579D01*
X-57707Y-171690D01*
X-57690Y-171802D01*
X-57676Y-171915D01*
X-57666Y-172028D01*
X-57660Y-172141D01*
X-57658Y-172254D01*
X-57658Y-175500D01*
X-89549Y-193661D02*
X-89549Y-195608D01*
X-89549Y-193661D02*
X-83058Y-193661D01*
X-83058Y-197556D01*
X-83060Y-197655D01*
X-83066Y-197755D01*
X-83075Y-197854D01*
X-83088Y-197952D01*
X-83105Y-198050D01*
X-83126Y-198148D01*
X-83151Y-198244D01*
X-83179Y-198339D01*
X-83211Y-198433D01*
X-83246Y-198526D01*
X-83285Y-198618D01*
X-83328Y-198708D01*
X-83373Y-198796D01*
X-83423Y-198883D01*
X-83475Y-198967D01*
X-83531Y-199050D01*
X-83589Y-199130D01*
X-83651Y-199208D01*
X-83716Y-199283D01*
X-83784Y-199356D01*
X-83854Y-199426D01*
X-83927Y-199494D01*
X-84002Y-199559D01*
X-84080Y-199621D01*
X-84160Y-199679D01*
X-84243Y-199735D01*
X-84327Y-199787D01*
X-84414Y-199837D01*
X-84502Y-199882D01*
X-84592Y-199925D01*
X-84684Y-199964D01*
X-84777Y-199999D01*
X-84871Y-200031D01*
X-84966Y-200059D01*
X-85062Y-200084D01*
X-85160Y-200105D01*
X-85258Y-200122D01*
X-85356Y-200135D01*
X-85455Y-200144D01*
X-85555Y-200150D01*
X-85654Y-200152D01*
X-92146Y-200152D01*
X-92245Y-200150D01*
X-92345Y-200144D01*
X-92444Y-200135D01*
X-92542Y-200122D01*
X-92640Y-200105D01*
X-92738Y-200084D01*
X-92834Y-200059D01*
X-92929Y-200031D01*
X-93023Y-199999D01*
X-93116Y-199964D01*
X-93208Y-199925D01*
X-93298Y-199882D01*
X-93386Y-199837D01*
X-93473Y-199787D01*
X-93557Y-199735D01*
X-93640Y-199679D01*
X-93720Y-199621D01*
X-93798Y-199559D01*
X-93873Y-199494D01*
X-93946Y-199426D01*
X-94016Y-199356D01*
X-94084Y-199283D01*
X-94149Y-199208D01*
X-94211Y-199130D01*
X-94269Y-199050D01*
X-94325Y-198967D01*
X-94377Y-198883D01*
X-94427Y-198796D01*
X-94472Y-198708D01*
X-94515Y-198618D01*
X-94554Y-198526D01*
X-94589Y-198434D01*
X-94621Y-198339D01*
X-94649Y-198244D01*
X-94674Y-198148D01*
X-94695Y-198050D01*
X-94712Y-197952D01*
X-94725Y-197854D01*
X-94734Y-197755D01*
X-94740Y-197655D01*
X-94742Y-197556D01*
X-94742Y-193661D01*
X-94742Y-187960D02*
X-83058Y-187960D01*
X-83058Y-181469D02*
X-94742Y-187960D01*
X-94742Y-181469D02*
X-83058Y-181469D01*
X-83058Y-175768D02*
X-94742Y-175768D01*
X-94742Y-172523D01*
X-94740Y-172410D01*
X-94734Y-172297D01*
X-94724Y-172184D01*
X-94710Y-172071D01*
X-94693Y-171959D01*
X-94671Y-171848D01*
X-94646Y-171738D01*
X-94616Y-171628D01*
X-94583Y-171520D01*
X-94546Y-171413D01*
X-94506Y-171307D01*
X-94461Y-171203D01*
X-94413Y-171100D01*
X-94362Y-170999D01*
X-94307Y-170900D01*
X-94249Y-170803D01*
X-94187Y-170708D01*
X-94122Y-170615D01*
X-94054Y-170525D01*
X-93983Y-170437D01*
X-93908Y-170351D01*
X-93831Y-170268D01*
X-93751Y-170188D01*
X-93668Y-170111D01*
X-93582Y-170036D01*
X-93494Y-169965D01*
X-93404Y-169897D01*
X-93311Y-169832D01*
X-93216Y-169770D01*
X-93119Y-169712D01*
X-93020Y-169657D01*
X-92919Y-169606D01*
X-92816Y-169558D01*
X-92712Y-169513D01*
X-92606Y-169473D01*
X-92499Y-169436D01*
X-92391Y-169403D01*
X-92281Y-169373D01*
X-92171Y-169348D01*
X-92060Y-169326D01*
X-91948Y-169309D01*
X-91835Y-169295D01*
X-91722Y-169285D01*
X-91609Y-169279D01*
X-91496Y-169277D01*
X-86304Y-169277D01*
X-86191Y-169279D01*
X-86078Y-169285D01*
X-85965Y-169295D01*
X-85852Y-169309D01*
X-85740Y-169326D01*
X-85629Y-169348D01*
X-85519Y-169373D01*
X-85409Y-169403D01*
X-85301Y-169436D01*
X-85194Y-169473D01*
X-85088Y-169513D01*
X-84984Y-169558D01*
X-84881Y-169606D01*
X-84780Y-169657D01*
X-84681Y-169712D01*
X-84584Y-169770D01*
X-84489Y-169832D01*
X-84396Y-169897D01*
X-84306Y-169965D01*
X-84218Y-170036D01*
X-84132Y-170111D01*
X-84049Y-170188D01*
X-83969Y-170268D01*
X-83892Y-170351D01*
X-83817Y-170437D01*
X-83746Y-170525D01*
X-83678Y-170615D01*
X-83613Y-170708D01*
X-83551Y-170803D01*
X-83493Y-170900D01*
X-83438Y-170999D01*
X-83387Y-171100D01*
X-83339Y-171203D01*
X-83294Y-171307D01*
X-83254Y-171413D01*
X-83217Y-171520D01*
X-83184Y-171628D01*
X-83154Y-171738D01*
X-83129Y-171848D01*
X-83107Y-171959D01*
X-83090Y-172071D01*
X-83076Y-172184D01*
X-83066Y-172297D01*
X-83060Y-172410D01*
X-83058Y-172523D01*
X-83058Y-175768D01*
D12*
X-109982Y-129869D02*
X-126238Y-129869D01*
X-109982Y-131675D02*
X-109982Y-128062D01*
X-126238Y-128062D02*
X-126238Y-131675D01*
X-109982Y-118306D02*
X-109982Y-114694D01*
X-109982Y-118306D02*
X-109984Y-118424D01*
X-109990Y-118542D01*
X-109999Y-118660D01*
X-110013Y-118777D01*
X-110030Y-118894D01*
X-110051Y-119011D01*
X-110076Y-119126D01*
X-110105Y-119241D01*
X-110138Y-119355D01*
X-110174Y-119467D01*
X-110214Y-119578D01*
X-110257Y-119688D01*
X-110304Y-119797D01*
X-110354Y-119904D01*
X-110409Y-120009D01*
X-110466Y-120112D01*
X-110527Y-120213D01*
X-110591Y-120313D01*
X-110658Y-120410D01*
X-110728Y-120505D01*
X-110802Y-120597D01*
X-110878Y-120688D01*
X-110958Y-120775D01*
X-111040Y-120860D01*
X-111125Y-120942D01*
X-111212Y-121022D01*
X-111303Y-121098D01*
X-111395Y-121172D01*
X-111490Y-121242D01*
X-111587Y-121309D01*
X-111687Y-121373D01*
X-111788Y-121434D01*
X-111891Y-121491D01*
X-111996Y-121546D01*
X-112103Y-121596D01*
X-112212Y-121643D01*
X-112322Y-121686D01*
X-112433Y-121726D01*
X-112545Y-121762D01*
X-112659Y-121795D01*
X-112774Y-121824D01*
X-112889Y-121849D01*
X-113006Y-121870D01*
X-113123Y-121887D01*
X-113240Y-121901D01*
X-113358Y-121910D01*
X-113476Y-121916D01*
X-113594Y-121918D01*
X-113594Y-121919D02*
X-122626Y-121919D01*
X-122626Y-121918D02*
X-122744Y-121916D01*
X-122862Y-121910D01*
X-122980Y-121901D01*
X-123097Y-121887D01*
X-123214Y-121870D01*
X-123331Y-121849D01*
X-123446Y-121824D01*
X-123561Y-121795D01*
X-123675Y-121762D01*
X-123787Y-121726D01*
X-123898Y-121686D01*
X-124008Y-121643D01*
X-124117Y-121596D01*
X-124224Y-121546D01*
X-124329Y-121492D01*
X-124432Y-121434D01*
X-124533Y-121373D01*
X-124633Y-121309D01*
X-124730Y-121242D01*
X-124825Y-121172D01*
X-124917Y-121098D01*
X-125008Y-121022D01*
X-125095Y-120942D01*
X-125180Y-120860D01*
X-125262Y-120775D01*
X-125342Y-120688D01*
X-125418Y-120597D01*
X-125492Y-120505D01*
X-125562Y-120410D01*
X-125629Y-120313D01*
X-125693Y-120213D01*
X-125754Y-120112D01*
X-125811Y-120009D01*
X-125865Y-119904D01*
X-125916Y-119797D01*
X-125963Y-119688D01*
X-126006Y-119578D01*
X-126046Y-119467D01*
X-126082Y-119355D01*
X-126115Y-119241D01*
X-126144Y-119126D01*
X-126169Y-119011D01*
X-126190Y-118894D01*
X-126207Y-118777D01*
X-126221Y-118660D01*
X-126230Y-118542D01*
X-126236Y-118424D01*
X-126238Y-118306D01*
X-126238Y-114694D01*
X-122626Y-108853D02*
X-126238Y-104338D01*
X-109982Y-104338D01*
X-109982Y-108853D02*
X-109982Y-99822D01*
D13*
X-43000Y319900D02*
X43000Y319900D01*
X43000Y176900D01*
X27000Y176900D01*
X-27000Y176900D02*
X-43000Y176900D01*
X-43000Y240400D02*
X-43000Y319900D01*
X-43000Y192900D02*
X-43000Y176900D01*
D11*
X-53904Y305228D02*
X-62992Y305228D01*
X-53904Y305227D02*
X-53805Y305225D01*
X-53705Y305219D01*
X-53606Y305210D01*
X-53508Y305197D01*
X-53410Y305180D01*
X-53312Y305159D01*
X-53216Y305134D01*
X-53121Y305106D01*
X-53027Y305074D01*
X-52934Y305039D01*
X-52842Y305000D01*
X-52752Y304957D01*
X-52664Y304912D01*
X-52577Y304862D01*
X-52493Y304810D01*
X-52410Y304754D01*
X-52330Y304696D01*
X-52252Y304634D01*
X-52177Y304569D01*
X-52104Y304501D01*
X-52034Y304431D01*
X-51966Y304358D01*
X-51901Y304283D01*
X-51839Y304205D01*
X-51781Y304125D01*
X-51725Y304042D01*
X-51673Y303958D01*
X-51623Y303871D01*
X-51578Y303783D01*
X-51535Y303693D01*
X-51496Y303601D01*
X-51461Y303508D01*
X-51429Y303414D01*
X-51401Y303319D01*
X-51376Y303223D01*
X-51355Y303125D01*
X-51338Y303027D01*
X-51325Y302929D01*
X-51316Y302830D01*
X-51310Y302730D01*
X-51308Y302631D01*
X-51308Y301333D01*
X-60396Y310501D02*
X-62992Y313746D01*
X-51308Y313746D01*
X-51308Y310501D02*
X-51308Y316992D01*
D12*
X204881Y104167D02*
X212682Y94145D01*
X204881Y104167D02*
X205991Y113078D01*
X216012Y120879D02*
X224924Y119769D01*
X205991Y113078D02*
X197079Y114188D01*
X189278Y124209D01*
X190388Y133121D01*
X200409Y140922D02*
X209321Y139812D01*
X217122Y129791D01*
X216012Y120879D01*
X231615Y100837D02*
X221594Y93035D01*
X212682Y94145D01*
X231615Y100837D02*
X232725Y109748D01*
X224924Y119769D01*
X190388Y133121D02*
X181476Y134231D01*
X173675Y144252D01*
X174785Y153163D01*
X184806Y160965D02*
X193718Y159855D01*
X201519Y149833D01*
X200409Y140922D01*
X184806Y160965D02*
X174785Y153163D01*
D10*
X232620Y94377D02*
X236575Y93432D01*
X227556Y86410D01*
X229506Y83905D02*
X225605Y88916D01*
X191862Y99182D02*
X191782Y99122D01*
X191700Y99065D01*
X191616Y99012D01*
X191530Y98962D01*
X191441Y98916D01*
X191351Y98873D01*
X191260Y98833D01*
X191167Y98798D01*
X191072Y98766D01*
X190977Y98737D01*
X190880Y98713D01*
X190782Y98692D01*
X190684Y98675D01*
X190585Y98662D01*
X190486Y98653D01*
X190386Y98647D01*
X190286Y98646D01*
X190187Y98649D01*
X190087Y98655D01*
X189988Y98665D01*
X189889Y98680D01*
X189791Y98698D01*
X189694Y98720D01*
X189598Y98746D01*
X189502Y98775D01*
X189408Y98808D01*
X189316Y98845D01*
X189225Y98886D01*
X189135Y98930D01*
X189047Y98977D01*
X188962Y99028D01*
X188878Y99083D01*
X188797Y99140D01*
X188717Y99201D01*
X188641Y99265D01*
X188567Y99331D01*
X188495Y99401D01*
X188426Y99473D01*
X188361Y99548D01*
X188298Y99626D01*
X188212Y99739D01*
X188130Y99854D01*
X188051Y99970D01*
X187975Y100089D01*
X187902Y100210D01*
X187832Y100333D01*
X187765Y100458D01*
X187702Y100584D01*
X187642Y100712D01*
X187586Y100841D01*
X187533Y100972D01*
X187483Y101104D01*
X187437Y101238D01*
X187395Y101372D01*
X187356Y101508D01*
X187320Y101645D01*
X187288Y101782D01*
X187260Y101921D01*
X187236Y102060D01*
X187215Y102199D01*
X187198Y102340D01*
X187184Y102480D01*
X187174Y102621D01*
X187168Y102762D01*
X187166Y102903D01*
X187167Y103045D01*
X187172Y103186D01*
X187181Y103327D01*
X187194Y103467D01*
X187210Y103608D01*
X193167Y107842D02*
X193247Y107902D01*
X193329Y107959D01*
X193413Y108012D01*
X193499Y108062D01*
X193588Y108108D01*
X193678Y108151D01*
X193769Y108191D01*
X193862Y108226D01*
X193957Y108258D01*
X194052Y108287D01*
X194149Y108311D01*
X194247Y108332D01*
X194345Y108349D01*
X194444Y108362D01*
X194543Y108371D01*
X194643Y108377D01*
X194743Y108378D01*
X194842Y108375D01*
X194942Y108369D01*
X195041Y108359D01*
X195140Y108344D01*
X195238Y108326D01*
X195335Y108304D01*
X195431Y108278D01*
X195527Y108249D01*
X195621Y108216D01*
X195713Y108179D01*
X195804Y108138D01*
X195894Y108094D01*
X195982Y108047D01*
X196067Y107996D01*
X196151Y107941D01*
X196232Y107884D01*
X196312Y107823D01*
X196388Y107759D01*
X196462Y107693D01*
X196534Y107623D01*
X196603Y107551D01*
X196668Y107476D01*
X196731Y107398D01*
X196732Y107398D02*
X196812Y107292D01*
X196889Y107184D01*
X196964Y107073D01*
X197035Y106960D01*
X197103Y106846D01*
X197168Y106729D01*
X197229Y106611D01*
X197287Y106491D01*
X197342Y106370D01*
X197393Y106247D01*
X197441Y106122D01*
X197486Y105997D01*
X197526Y105870D01*
X197564Y105742D01*
X197597Y105613D01*
X197628Y105483D01*
X197654Y105353D01*
X197677Y105222D01*
X197696Y105090D01*
X197711Y104957D01*
X197723Y104825D01*
X197731Y104692D01*
X197735Y104558D01*
X192193Y105475D02*
X192183Y105574D01*
X192175Y105673D01*
X192172Y105772D01*
X192173Y105871D01*
X192177Y105970D01*
X192185Y106069D01*
X192197Y106168D01*
X192213Y106266D01*
X192233Y106363D01*
X192256Y106459D01*
X192283Y106555D01*
X192313Y106649D01*
X192347Y106742D01*
X192385Y106834D01*
X192426Y106924D01*
X192471Y107013D01*
X192519Y107100D01*
X192570Y107184D01*
X192625Y107267D01*
X192683Y107348D01*
X192744Y107426D01*
X192807Y107502D01*
X192874Y107576D01*
X192943Y107647D01*
X193015Y107715D01*
X193090Y107780D01*
X193167Y107843D01*
X192836Y101549D02*
X192846Y101450D01*
X192854Y101351D01*
X192857Y101252D01*
X192856Y101153D01*
X192852Y101054D01*
X192844Y100955D01*
X192832Y100856D01*
X192816Y100758D01*
X192796Y100661D01*
X192773Y100565D01*
X192746Y100469D01*
X192716Y100375D01*
X192682Y100282D01*
X192644Y100190D01*
X192603Y100100D01*
X192558Y100011D01*
X192510Y99924D01*
X192459Y99840D01*
X192404Y99757D01*
X192346Y99676D01*
X192285Y99598D01*
X192222Y99522D01*
X192155Y99448D01*
X192086Y99377D01*
X192014Y99309D01*
X191939Y99244D01*
X191862Y99181D01*
X192835Y101549D02*
X192193Y105475D01*
X201373Y101436D02*
X194694Y91408D01*
X206054Y95423D01*
X206780Y90355D02*
X210735Y89410D01*
X201716Y82389D01*
X203666Y79884D02*
X199765Y84894D01*
D12*
X44450Y-255270D02*
X31750Y-255270D01*
X25400Y-248920D01*
X25400Y-236220D02*
X31750Y-229870D01*
X25400Y-248920D02*
X19050Y-255270D01*
X6350Y-255270D01*
X0Y-248920D01*
X0Y-236220D02*
X6350Y-229870D01*
X19050Y-229870D01*
X25400Y-236220D01*
X50800Y-236220D02*
X50800Y-248920D01*
X44450Y-255270D01*
X50800Y-236220D02*
X44450Y-229870D01*
X31750Y-229870D01*
X0Y-248920D02*
X-6350Y-255270D01*
X-19050Y-255270D01*
X-25400Y-248920D01*
X-25400Y-236220D02*
X-19050Y-229870D01*
X-6350Y-229870D01*
X0Y-236220D01*
X-31750Y-255270D02*
X-44450Y-255270D01*
X-50800Y-248920D01*
X-50800Y-236220D01*
X-44450Y-229870D01*
X-25400Y-248920D02*
X-31750Y-255270D01*
X-25400Y-236220D02*
X-31750Y-229870D01*
X-44450Y-229870D01*
D10*
X55245Y-239395D02*
X58420Y-236855D01*
X58420Y-248285D01*
X55245Y-248285D02*
X61595Y-248285D01*
X-57785Y-236855D02*
X-60325Y-245745D01*
X-53975Y-245745D01*
X-55880Y-243205D02*
X-55880Y-248285D01*
X25146Y-271145D02*
X25246Y-271143D01*
X25345Y-271137D01*
X25445Y-271127D01*
X25543Y-271114D01*
X25642Y-271096D01*
X25739Y-271075D01*
X25835Y-271050D01*
X25931Y-271021D01*
X26025Y-270988D01*
X26118Y-270952D01*
X26209Y-270912D01*
X26299Y-270868D01*
X26387Y-270821D01*
X26473Y-270771D01*
X26557Y-270717D01*
X26639Y-270660D01*
X26718Y-270600D01*
X26796Y-270536D01*
X26870Y-270470D01*
X26942Y-270401D01*
X27011Y-270329D01*
X27077Y-270255D01*
X27141Y-270177D01*
X27201Y-270098D01*
X27258Y-270016D01*
X27312Y-269932D01*
X27362Y-269846D01*
X27409Y-269758D01*
X27453Y-269668D01*
X27493Y-269577D01*
X27529Y-269484D01*
X27562Y-269390D01*
X27591Y-269294D01*
X27616Y-269198D01*
X27637Y-269101D01*
X27655Y-269002D01*
X27668Y-268904D01*
X27678Y-268804D01*
X27684Y-268705D01*
X27686Y-268605D01*
X25146Y-271145D02*
X25005Y-271143D01*
X24864Y-271138D01*
X24723Y-271128D01*
X24582Y-271115D01*
X24442Y-271099D01*
X24302Y-271078D01*
X24163Y-271054D01*
X24024Y-271026D01*
X23887Y-270995D01*
X23750Y-270960D01*
X23614Y-270922D01*
X23479Y-270880D01*
X23346Y-270834D01*
X23213Y-270785D01*
X23082Y-270732D01*
X22953Y-270676D01*
X22824Y-270617D01*
X22698Y-270554D01*
X22573Y-270488D01*
X22450Y-270419D01*
X22329Y-270346D01*
X22210Y-270270D01*
X22092Y-270191D01*
X21977Y-270110D01*
X21865Y-270025D01*
X21754Y-269937D01*
X21646Y-269846D01*
X21540Y-269753D01*
X21437Y-269656D01*
X21336Y-269557D01*
X21654Y-262255D02*
X21656Y-262155D01*
X21662Y-262056D01*
X21672Y-261956D01*
X21685Y-261858D01*
X21703Y-261759D01*
X21724Y-261662D01*
X21749Y-261566D01*
X21778Y-261470D01*
X21811Y-261376D01*
X21847Y-261283D01*
X21887Y-261192D01*
X21931Y-261102D01*
X21978Y-261014D01*
X22028Y-260928D01*
X22082Y-260844D01*
X22139Y-260762D01*
X22199Y-260683D01*
X22263Y-260605D01*
X22329Y-260531D01*
X22398Y-260459D01*
X22470Y-260390D01*
X22544Y-260324D01*
X22622Y-260260D01*
X22701Y-260200D01*
X22783Y-260143D01*
X22867Y-260089D01*
X22953Y-260039D01*
X23041Y-259992D01*
X23131Y-259948D01*
X23222Y-259908D01*
X23315Y-259872D01*
X23409Y-259839D01*
X23505Y-259810D01*
X23601Y-259785D01*
X23698Y-259764D01*
X23797Y-259746D01*
X23895Y-259733D01*
X23995Y-259723D01*
X24094Y-259717D01*
X24194Y-259715D01*
X24327Y-259717D01*
X24460Y-259722D01*
X24593Y-259732D01*
X24726Y-259745D01*
X24858Y-259762D01*
X24990Y-259782D01*
X25121Y-259806D01*
X25251Y-259834D01*
X25381Y-259865D01*
X25509Y-259900D01*
X25637Y-259939D01*
X25763Y-259981D01*
X25888Y-260027D01*
X26012Y-260076D01*
X26135Y-260128D01*
X26256Y-260184D01*
X26375Y-260244D01*
X26493Y-260306D01*
X26608Y-260372D01*
X26722Y-260441D01*
X26834Y-260514D01*
X26944Y-260589D01*
X27052Y-260668D01*
X22923Y-264478D02*
X22839Y-264426D01*
X22756Y-264371D01*
X22676Y-264312D01*
X22598Y-264251D01*
X22523Y-264187D01*
X22450Y-264119D01*
X22379Y-264049D01*
X22312Y-263977D01*
X22247Y-263902D01*
X22185Y-263824D01*
X22126Y-263744D01*
X22070Y-263662D01*
X22018Y-263578D01*
X21969Y-263492D01*
X21923Y-263404D01*
X21880Y-263314D01*
X21841Y-263223D01*
X21806Y-263130D01*
X21774Y-263036D01*
X21746Y-262941D01*
X21721Y-262845D01*
X21701Y-262748D01*
X21683Y-262650D01*
X21670Y-262552D01*
X21661Y-262453D01*
X21655Y-262354D01*
X21653Y-262255D01*
X26416Y-266382D02*
X26500Y-266434D01*
X26583Y-266489D01*
X26663Y-266548D01*
X26741Y-266609D01*
X26816Y-266673D01*
X26889Y-266741D01*
X26960Y-266811D01*
X27027Y-266883D01*
X27092Y-266958D01*
X27154Y-267036D01*
X27213Y-267116D01*
X27269Y-267198D01*
X27321Y-267282D01*
X27370Y-267368D01*
X27416Y-267456D01*
X27459Y-267546D01*
X27498Y-267637D01*
X27533Y-267730D01*
X27565Y-267824D01*
X27593Y-267919D01*
X27618Y-268015D01*
X27638Y-268112D01*
X27656Y-268210D01*
X27669Y-268308D01*
X27678Y-268407D01*
X27684Y-268506D01*
X27686Y-268605D01*
X26416Y-266383D02*
X22924Y-264478D01*
X31750Y-259715D02*
X35560Y-271145D01*
X39370Y-259715D01*
X47308Y-259715D02*
X47412Y-259717D01*
X47517Y-259723D01*
X47621Y-259732D01*
X47724Y-259745D01*
X47827Y-259763D01*
X47929Y-259783D01*
X48031Y-259808D01*
X48131Y-259836D01*
X48231Y-259868D01*
X48329Y-259904D01*
X48426Y-259943D01*
X48521Y-259985D01*
X48615Y-260031D01*
X48707Y-260081D01*
X48797Y-260133D01*
X48885Y-260189D01*
X48971Y-260249D01*
X49055Y-260311D01*
X49136Y-260376D01*
X49215Y-260444D01*
X49292Y-260516D01*
X49365Y-260589D01*
X49437Y-260666D01*
X49505Y-260745D01*
X49570Y-260826D01*
X49632Y-260910D01*
X49692Y-260996D01*
X49748Y-261084D01*
X49800Y-261174D01*
X49850Y-261266D01*
X49896Y-261360D01*
X49938Y-261455D01*
X49977Y-261552D01*
X50013Y-261650D01*
X50045Y-261750D01*
X50073Y-261850D01*
X50098Y-261952D01*
X50118Y-262054D01*
X50136Y-262157D01*
X50149Y-262260D01*
X50158Y-262364D01*
X50164Y-262469D01*
X50166Y-262573D01*
X47308Y-259715D02*
X47190Y-259717D01*
X47071Y-259723D01*
X46953Y-259732D01*
X46836Y-259745D01*
X46719Y-259763D01*
X46602Y-259783D01*
X46486Y-259808D01*
X46371Y-259836D01*
X46258Y-259869D01*
X46145Y-259904D01*
X46033Y-259944D01*
X45923Y-259986D01*
X45814Y-260033D01*
X45706Y-260083D01*
X45601Y-260136D01*
X45497Y-260193D01*
X45395Y-260253D01*
X45295Y-260316D01*
X45197Y-260383D01*
X45101Y-260452D01*
X45008Y-260525D01*
X44917Y-260601D01*
X44828Y-260679D01*
X44742Y-260761D01*
X44659Y-260845D01*
X44578Y-260931D01*
X44501Y-261021D01*
X44426Y-261112D01*
X44354Y-261206D01*
X44285Y-261303D01*
X44220Y-261401D01*
X44157Y-261502D01*
X44098Y-261605D01*
X44042Y-261709D01*
X43990Y-261815D01*
X43941Y-261923D01*
X43896Y-262032D01*
X43854Y-262143D01*
X43816Y-262255D01*
X49213Y-264795D02*
X49289Y-264720D01*
X49364Y-264641D01*
X49435Y-264560D01*
X49504Y-264476D01*
X49569Y-264390D01*
X49631Y-264302D01*
X49691Y-264212D01*
X49747Y-264120D01*
X49800Y-264025D01*
X49849Y-263929D01*
X49895Y-263831D01*
X49938Y-263732D01*
X49977Y-263631D01*
X50012Y-263529D01*
X50044Y-263426D01*
X50072Y-263322D01*
X50097Y-263217D01*
X50118Y-263110D01*
X50135Y-263004D01*
X50148Y-262897D01*
X50157Y-262789D01*
X50163Y-262681D01*
X50165Y-262573D01*
X49213Y-264795D02*
X43815Y-271145D01*
X50165Y-271145D01*
D12*
X-129614Y180038D02*
X-119787Y188082D01*
X-129614Y180038D02*
X-138550Y180930D01*
X-146594Y190758D02*
X-145702Y199694D01*
X-138550Y180930D02*
X-139442Y171994D01*
X-149270Y163950D01*
X-158206Y164842D01*
X-166250Y174670D02*
X-165358Y183606D01*
X-155530Y191650D01*
X-146594Y190758D01*
X-126939Y206846D02*
X-118895Y197018D01*
X-119787Y188082D01*
X-126939Y206846D02*
X-135875Y207738D01*
X-145702Y199694D01*
X-158206Y164842D02*
X-159098Y155906D01*
X-168925Y147862D01*
X-177861Y148754D01*
X-185905Y158582D02*
X-185013Y167518D01*
X-175186Y175562D01*
X-166250Y174670D01*
X-185905Y158582D02*
X-177861Y148754D01*
D10*
X-120505Y208008D02*
X-119657Y211985D01*
X-112417Y203140D01*
X-114874Y201129D02*
X-109960Y205151D01*
X-124313Y167145D02*
X-124252Y167066D01*
X-124193Y166986D01*
X-124138Y166903D01*
X-124086Y166818D01*
X-124037Y166730D01*
X-123992Y166642D01*
X-123951Y166551D01*
X-123913Y166459D01*
X-123878Y166365D01*
X-123847Y166270D01*
X-123820Y166174D01*
X-123797Y166077D01*
X-123778Y165979D01*
X-123763Y165881D01*
X-123751Y165782D01*
X-123743Y165682D01*
X-123739Y165583D01*
X-123740Y165483D01*
X-123744Y165383D01*
X-123752Y165284D01*
X-123763Y165185D01*
X-123779Y165086D01*
X-123799Y164988D01*
X-123822Y164891D01*
X-123849Y164795D01*
X-123880Y164701D01*
X-123915Y164607D01*
X-123953Y164515D01*
X-123995Y164425D01*
X-124040Y164336D01*
X-124089Y164249D01*
X-124142Y164164D01*
X-124197Y164081D01*
X-124256Y164000D01*
X-124318Y163922D01*
X-124383Y163846D01*
X-124450Y163773D01*
X-124521Y163703D01*
X-124594Y163635D01*
X-124670Y163570D01*
X-124669Y163571D02*
X-124780Y163483D01*
X-124892Y163397D01*
X-125007Y163315D01*
X-125124Y163236D01*
X-125244Y163160D01*
X-125365Y163088D01*
X-125488Y163018D01*
X-125612Y162952D01*
X-125739Y162889D01*
X-125867Y162829D01*
X-125996Y162773D01*
X-126127Y162720D01*
X-126260Y162671D01*
X-126393Y162625D01*
X-126528Y162583D01*
X-126664Y162544D01*
X-126800Y162509D01*
X-126938Y162477D01*
X-127077Y162449D01*
X-127216Y162425D01*
X-127355Y162405D01*
X-127496Y162388D01*
X-127636Y162374D01*
X-127777Y162365D01*
X-127918Y162359D01*
X-128059Y162357D01*
X-128201Y162359D01*
X-128342Y162364D01*
X-128483Y162373D01*
X-128623Y162386D01*
X-133004Y168238D02*
X-133065Y168317D01*
X-133124Y168397D01*
X-133179Y168480D01*
X-133231Y168566D01*
X-133280Y168653D01*
X-133325Y168742D01*
X-133366Y168832D01*
X-133405Y168924D01*
X-133439Y169018D01*
X-133470Y169113D01*
X-133497Y169209D01*
X-133520Y169306D01*
X-133539Y169404D01*
X-133555Y169502D01*
X-133566Y169601D01*
X-133574Y169701D01*
X-133578Y169800D01*
X-133577Y169900D01*
X-133573Y170000D01*
X-133565Y170099D01*
X-133554Y170198D01*
X-133538Y170297D01*
X-133518Y170395D01*
X-133495Y170492D01*
X-133468Y170587D01*
X-133437Y170682D01*
X-133402Y170776D01*
X-133364Y170868D01*
X-133322Y170958D01*
X-133277Y171047D01*
X-133228Y171134D01*
X-133175Y171219D01*
X-133120Y171302D01*
X-133061Y171383D01*
X-132999Y171461D01*
X-132935Y171537D01*
X-132867Y171610D01*
X-132796Y171680D01*
X-132723Y171748D01*
X-132647Y171812D01*
X-132646Y171812D02*
X-132542Y171895D01*
X-132435Y171975D01*
X-132327Y172052D01*
X-132216Y172126D01*
X-132103Y172197D01*
X-131988Y172264D01*
X-131871Y172328D01*
X-131753Y172390D01*
X-131633Y172447D01*
X-131511Y172502D01*
X-131388Y172553D01*
X-131264Y172600D01*
X-131138Y172644D01*
X-131011Y172684D01*
X-130883Y172721D01*
X-130754Y172754D01*
X-130624Y172784D01*
X-130493Y172810D01*
X-130362Y172832D01*
X-130230Y172851D01*
X-130098Y172866D01*
X-129965Y172877D01*
X-129832Y172885D01*
X-130613Y167322D02*
X-130711Y167309D01*
X-130810Y167300D01*
X-130909Y167294D01*
X-131008Y167292D01*
X-131107Y167294D01*
X-131206Y167300D01*
X-131305Y167309D01*
X-131403Y167323D01*
X-131501Y167340D01*
X-131598Y167361D01*
X-131694Y167385D01*
X-131789Y167413D01*
X-131883Y167445D01*
X-131976Y167481D01*
X-132067Y167520D01*
X-132157Y167562D01*
X-132245Y167608D01*
X-132331Y167657D01*
X-132415Y167710D01*
X-132497Y167766D01*
X-132577Y167825D01*
X-132654Y167886D01*
X-132730Y167951D01*
X-132802Y168019D01*
X-132872Y168089D01*
X-132939Y168162D01*
X-133003Y168238D01*
X-126703Y168061D02*
X-126605Y168074D01*
X-126506Y168083D01*
X-126407Y168089D01*
X-126308Y168091D01*
X-126209Y168089D01*
X-126110Y168083D01*
X-126011Y168074D01*
X-125913Y168060D01*
X-125815Y168043D01*
X-125718Y168022D01*
X-125622Y167998D01*
X-125527Y167970D01*
X-125433Y167938D01*
X-125340Y167902D01*
X-125249Y167863D01*
X-125159Y167821D01*
X-125071Y167775D01*
X-124985Y167726D01*
X-124901Y167673D01*
X-124819Y167617D01*
X-124739Y167558D01*
X-124662Y167497D01*
X-124586Y167432D01*
X-124514Y167364D01*
X-124444Y167294D01*
X-124377Y167221D01*
X-124312Y167145D01*
X-126704Y168060D02*
X-130613Y167322D01*
X-126799Y176598D02*
X-116611Y170167D01*
X-120902Y181425D01*
X-110223Y175395D02*
X-107766Y177406D01*
X-107682Y177478D01*
X-107600Y177552D01*
X-107520Y177630D01*
X-107444Y177710D01*
X-107370Y177793D01*
X-107299Y177878D01*
X-107231Y177966D01*
X-107167Y178056D01*
X-107105Y178148D01*
X-107047Y178242D01*
X-106992Y178338D01*
X-106941Y178436D01*
X-106892Y178536D01*
X-106848Y178638D01*
X-106807Y178741D01*
X-106770Y178845D01*
X-106736Y178951D01*
X-106706Y179057D01*
X-106680Y179165D01*
X-106657Y179274D01*
X-106639Y179383D01*
X-106624Y179493D01*
X-106613Y179603D01*
X-106606Y179713D01*
X-106602Y179824D01*
X-106603Y179935D01*
X-106607Y180046D01*
X-106616Y180156D01*
X-106628Y180266D01*
X-106644Y180376D01*
X-106664Y180485D01*
X-106687Y180593D01*
X-106715Y180701D01*
X-106746Y180807D01*
X-106780Y180912D01*
X-106819Y181016D01*
X-106861Y181119D01*
X-106907Y181220D01*
X-106956Y181319D01*
X-107008Y181417D01*
X-107064Y181512D01*
X-107123Y181606D01*
X-107186Y181698D01*
X-107251Y181787D01*
X-107320Y181874D01*
X-107392Y181959D01*
X-107466Y182040D01*
X-107544Y182120D01*
X-107624Y182196D01*
X-107707Y182270D01*
X-107792Y182341D01*
X-107880Y182409D01*
X-107970Y182473D01*
X-108062Y182535D01*
X-108156Y182593D01*
X-108252Y182648D01*
X-108350Y182699D01*
X-108450Y182748D01*
X-108552Y182792D01*
X-108655Y182833D01*
X-108759Y182870D01*
X-108865Y182904D01*
X-108971Y182934D01*
X-109079Y182960D01*
X-109188Y182983D01*
X-109297Y183001D01*
X-109407Y183016D01*
X-109517Y183027D01*
X-109627Y183034D01*
X-109738Y183038D01*
X-109849Y183037D01*
X-109960Y183033D01*
X-110070Y183024D01*
X-110180Y183012D01*
X-110290Y182996D01*
X-110399Y182976D01*
X-110507Y182953D01*
X-110615Y182925D01*
X-110721Y182894D01*
X-110826Y182860D01*
X-110930Y182821D01*
X-111033Y182779D01*
X-111134Y182733D01*
X-111233Y182684D01*
X-111331Y182632D01*
X-111426Y182576D01*
X-111520Y182517D01*
X-111612Y182454D01*
X-111701Y182389D01*
X-111788Y182320D01*
X-114514Y186653D02*
X-117463Y184240D01*
X-114514Y186654D02*
X-114435Y186715D01*
X-114355Y186774D01*
X-114272Y186829D01*
X-114186Y186881D01*
X-114099Y186930D01*
X-114010Y186975D01*
X-113920Y187016D01*
X-113828Y187054D01*
X-113734Y187089D01*
X-113639Y187120D01*
X-113543Y187147D01*
X-113446Y187170D01*
X-113348Y187189D01*
X-113250Y187205D01*
X-113151Y187216D01*
X-113051Y187224D01*
X-112952Y187228D01*
X-112852Y187227D01*
X-112752Y187223D01*
X-112653Y187215D01*
X-112554Y187204D01*
X-112455Y187188D01*
X-112357Y187168D01*
X-112260Y187145D01*
X-112164Y187118D01*
X-112070Y187087D01*
X-111976Y187052D01*
X-111884Y187014D01*
X-111794Y186972D01*
X-111705Y186927D01*
X-111618Y186878D01*
X-111533Y186825D01*
X-111450Y186770D01*
X-111369Y186711D01*
X-111291Y186649D01*
X-111215Y186584D01*
X-111142Y186517D01*
X-111072Y186446D01*
X-111004Y186373D01*
X-110939Y186297D01*
X-110878Y186218D01*
X-110819Y186138D01*
X-110764Y186055D01*
X-110712Y185970D01*
X-110663Y185882D01*
X-110618Y185793D01*
X-110577Y185703D01*
X-110539Y185611D01*
X-110504Y185517D01*
X-110473Y185422D01*
X-110446Y185326D01*
X-110423Y185229D01*
X-110404Y185131D01*
X-110389Y185033D01*
X-110377Y184934D01*
X-110369Y184834D01*
X-110365Y184735D01*
X-110366Y184635D01*
X-110370Y184535D01*
X-110378Y184436D01*
X-110389Y184337D01*
X-110405Y184238D01*
X-110425Y184140D01*
X-110448Y184043D01*
X-110475Y183948D01*
X-110506Y183853D01*
X-110541Y183759D01*
X-110579Y183667D01*
X-110621Y183577D01*
X-110666Y183488D01*
X-110715Y183401D01*
X-110768Y183316D01*
X-110823Y183233D01*
X-110882Y183152D01*
X-110944Y183074D01*
X-111009Y182998D01*
X-111076Y182925D01*
X-111147Y182855D01*
X-111220Y182787D01*
X-111296Y182722D01*
X-111297Y182722D02*
X-113262Y181113D01*
M02*
