M48
;GenerationSoftware,Autodesk,EAGLE,9.6.2*%
;CreationDate,2021-04-06T05:44:05Z*%
FMAT,2
ICI,OFF
METRIC,TZ,000.000
T2C1.000
T1C1.016
%
G90
M71
T1
X-38989Y13208
X-38989Y10668
X-38989Y8128
X-38989Y5588
X-38989Y3048
X-38989Y508
X-38989Y-2032
X-38989Y-4572
X-38989Y-7112
X-38989Y-9652
X-38989Y-12192
X-38989Y-14732
X-23749Y-14732
X-23749Y-12192
X-23749Y-9652
X-23749Y-7112
X-23749Y-4572
X-23749Y-2032
X-23749Y508
X-23749Y3048
X-23749Y5588
X-23749Y8128
X-23749Y10668
X-23749Y13208
X8890Y-8636
X6350Y-8636
X3810Y-8636
X1270Y-8636
X-1270Y-8636
X-3810Y-8636
X-6350Y-8636
X-8890Y-8636
X-8890Y-21336
X-6350Y-21336
X-3810Y-21336
X-1270Y-21336
X1270Y-21336
X3810Y-21336
X6350Y-21336
X8890Y-21336
X3810Y-24257
X21880Y10696
X20320Y12700
X18760Y14704
X-17206Y16171
X1270Y-24257
X-1270Y-24257
X-3810Y-24257
X-13274Y19389
X-15240Y17780
T2
X-4800Y21590
X0Y24590
X0Y18490
M30